<svg xmlns="http://www.w3.org/2000/svg" viewBox="0 0 76.37 127"><defs><style>.cls-1,.cls-2{fill:#8a2432;}.cls-2{font-size:9.12px;font-family:MyriadPro-Regular, Myriad Pro;}</style></defs><g id="Layer_2" data-name="Layer 2"><g id="Layer_1-2" data-name="Layer 1"><path class="cls-1" d="M18.64,35.71l-9.1,6.2L19.65,46l3.19-9Zm.85,9.66L11.06,42,18.68,37l3.21,1Z"/><path class="cls-1" d="M44.89,37l3.21,9,10.1-4.06-9.08-6.2Zm.89.9,3.11-1.07L56.59,42l-8.33,3.41Z"/><path class="cls-1" d="M41,37.6H26.68l-3.26,8.69H44.33ZM27,38.79H40.62l2.91,7.11H24.22Z"/><path class="cls-1" d="M21.78,61.52a6.92,6.92,0,0,0,.48-2.4h-.53Z"/><path class="cls-1" d="M23.37,59.12a7.57,7.57,0,0,0,1.32,3.55,5.05,5.05,0,0,0,1.25-3.55"/><path class="cls-1" d="M27.09,59.12a7,7,0,0,0,1.24,3.55,5,5,0,0,0,1.26-3.55"/><path class="cls-1" d="M30.73,59.12A7.24,7.24,0,0,0,32,62.67a5.14,5.14,0,0,0,1.21-3.55"/><path class="cls-1" d="M34.42,59.12a7.2,7.2,0,0,0,1.27,3.55,5.05,5.05,0,0,0,1.25-3.55"/><path class="cls-1" d="M38.1,59.12a6.93,6.93,0,0,0,1.26,3.55,5,5,0,0,0,1.26-3.55"/><path class="cls-1" d="M41.74,59.12A7.54,7.54,0,0,0,43,62.67a5,5,0,0,0,1.26-3.55"/><path class="cls-1" d="M21.78,106.87a7.08,7.08,0,0,1,.48,2.4h-.53Z"/><path class="cls-1" d="M23.37,109.27a7.57,7.57,0,0,1,1.32-3.55,5.11,5.11,0,0,1,1.25,3.55"/><path class="cls-1" d="M27.09,109.27a7,7,0,0,1,1.24-3.55,5.09,5.09,0,0,1,1.26,3.55"/><path class="cls-1" d="M30.73,109.27A7.24,7.24,0,0,1,32,105.72a5.2,5.2,0,0,1,1.21,3.55"/><path class="cls-1" d="M34.42,109.27a7.2,7.2,0,0,1,1.27-3.55,5.11,5.11,0,0,1,1.25,3.55"/><path class="cls-1" d="M38.1,109.27a6.93,6.93,0,0,1,1.26-3.55,5.09,5.09,0,0,1,1.26,3.55"/><path class="cls-1" d="M41.74,109.27a7.54,7.54,0,0,1,1.3-3.55,5.09,5.09,0,0,1,1.26,3.55"/><path class="cls-1" d="M23.66,65.55a11.84,11.84,0,0,1,1,1,11,11,0,0,1,1-1,6.89,6.89,0,0,1-1-1.08S24,65.19,23.66,65.55Z"/><path class="cls-1" d="M21.73,65.88a1.12,1.12,0,0,1,.4-.33,2,2,0,0,1-.4-.37"/><path class="cls-1" d="M27.28,65.55a10.59,10.59,0,0,1,1,1,9.6,9.6,0,0,1,1.09-1,8.46,8.46,0,0,1-1.09-1.08A12.18,12.18,0,0,1,27.28,65.55Z"/><path class="cls-1" d="M30.89,65.49a13.92,13.92,0,0,1,1,1,12.71,12.71,0,0,1,1-1,10.47,10.47,0,0,1-1-1.06S31.27,65.15,30.89,65.49Z"/><path class="cls-1" d="M34.6,65.55s.94.86,1,1a7.68,7.68,0,0,1,1-1,9.33,9.33,0,0,1-1-1.08A14,14,0,0,1,34.6,65.55Z"/><path class="cls-1" d="M38.3,65.55a10.6,10.6,0,0,1,1,1,8,8,0,0,1,1-1,9.12,9.12,0,0,1-1-1.08S38.7,65.19,38.3,65.55Z"/><path class="cls-1" d="M42,65.59a11.12,11.12,0,0,1,1,1,9.14,9.14,0,0,1,1.07-1A8.77,8.77,0,0,1,43,64.51,10.42,10.42,0,0,1,42,65.59Z"/><path class="cls-1" d="M21.71,63.64a7.25,7.25,0,0,0,1.08-1.8,11.49,11.49,0,0,0,1.12,1.8,6.05,6.05,0,0,1-1.12,1.13A7.07,7.07,0,0,1,21.71,63.64Z"/><path class="cls-1" d="M25.43,63.64a8.81,8.81,0,0,0,1.13-1.8,6.94,6.94,0,0,0,1.07,1.8,7.33,7.33,0,0,1-1.07,1.13A8.1,8.1,0,0,1,25.43,63.64Z"/><path class="cls-1" d="M29,63.64a7.87,7.87,0,0,0,1.09-1.8,12.35,12.35,0,0,0,1.13,1.8,6.92,6.92,0,0,1-1.13,1.13A10.22,10.22,0,0,1,29,63.64Z"/><path class="cls-1" d="M32.7,63.64a7.93,7.93,0,0,0,1.08-1.8,20.81,20.81,0,0,0,1.16,1.8,8.41,8.41,0,0,1-1.16,1.13A8.12,8.12,0,0,1,32.7,63.64Z"/><path class="cls-1" d="M36.43,63.64a6.43,6.43,0,0,0,1.08-1.8,13.67,13.67,0,0,0,1.17,1.8,9.25,9.25,0,0,1-1.17,1.13A9.54,9.54,0,0,1,36.43,63.64Z"/><path class="cls-1" d="M40.1,63.6a8,8,0,0,0,1.07-1.81,10.22,10.22,0,0,0,1.1,1.81,6.75,6.75,0,0,1-1.1,1.15A8.85,8.85,0,0,1,40.1,63.6Z"/><path class="cls-1" d="M43.81,63.64a7.76,7.76,0,0,0,1.11-1.8A7.19,7.19,0,0,0,46,63.64a6.74,6.74,0,0,1-1.09,1.13A7.28,7.28,0,0,1,43.81,63.64Z"/><path class="cls-1" d="M21.71,67.34a7.65,7.65,0,0,1,1.08,1.78,14.75,14.75,0,0,1,1.12-1.78,6.68,6.68,0,0,0-1.12-1.15A6.62,6.62,0,0,0,21.71,67.34Z"/><path class="cls-1" d="M25.43,67.34a9.44,9.44,0,0,1,1.13,1.78,7.87,7.87,0,0,1,1.07-1.78,8.28,8.28,0,0,0-1.07-1.15A7.51,7.51,0,0,0,25.43,67.34Z"/><path class="cls-1" d="M29,67.34a8.36,8.36,0,0,1,1.09,1.78,16.25,16.25,0,0,1,1.13-1.78,7.73,7.73,0,0,0-1.13-1.15A9.27,9.27,0,0,0,29,67.34Z"/><path class="cls-1" d="M32.7,67.34a8.42,8.42,0,0,1,1.08,1.78c.06.1.25-.63,1.16-1.78a9.6,9.6,0,0,0-1.16-1.15A7.52,7.52,0,0,0,32.7,67.34Z"/><path class="cls-1" d="M36.43,67.34a6.74,6.74,0,0,1,1.08,1.78,18.77,18.77,0,0,1,1.17-1.78,10.7,10.7,0,0,0-1.17-1.15A8.72,8.72,0,0,0,36.43,67.34Z"/><path class="cls-1" d="M40.1,67.38a7.78,7.78,0,0,1,1.07,1.83,9.06,9.06,0,0,1,1.1-1.83,6.09,6.09,0,0,0-1.1-1.14A8.54,8.54,0,0,0,40.1,67.38Z"/><path class="cls-1" d="M43.81,67.34a8.23,8.23,0,0,1,1.11,1.78A8.21,8.21,0,0,1,46,67.34a7.53,7.53,0,0,0-1.09-1.15A6.8,6.8,0,0,0,43.81,67.34Z"/><path class="cls-1" d="M21.73,86.62a6,6,0,0,0,.05-4.82"/><path class="cls-1" d="M24.69,80.64a6.54,6.54,0,0,0-1.32,3.57,7.57,7.57,0,0,0,1.32,3.54,5.68,5.68,0,0,0,0-7.11Z"/><path class="cls-1" d="M28.33,80.64a6.25,6.25,0,0,0-1.24,3.57,7,7,0,0,0,1.24,3.54,5.65,5.65,0,0,0,0-7.11Z"/><path class="cls-1" d="M32,80.64a6.53,6.53,0,0,0-1.29,3.57A7.23,7.23,0,0,0,32,87.75a5.83,5.83,0,0,0,0-7.11Z"/><path class="cls-1" d="M35.69,80.64a6.34,6.34,0,0,0-1.27,3.57,7.2,7.2,0,0,0,1.27,3.54,5.68,5.68,0,0,0,0-7.11Z"/><path class="cls-1" d="M39.36,80.64a6.44,6.44,0,0,0-1.26,3.57,6.92,6.92,0,0,0,1.26,3.54,5.65,5.65,0,0,0,0-7.11Z"/><path class="cls-1" d="M43,80.64a6.42,6.42,0,0,0-1.3,3.57A7.53,7.53,0,0,0,43,87.75a5.65,5.65,0,0,0,0-7.11Z"/><path class="cls-1" d="M23.66,90.6a10.35,10.35,0,0,1,1,1.05,13.93,13.93,0,0,1,1-1.05,6.67,6.67,0,0,1-1-1.07S24,90.26,23.66,90.6Z"/><path class="cls-1" d="M21.73,91a1.7,1.7,0,0,1,.4-.36,2,2,0,0,1-.4-.34"/><path class="cls-1" d="M27.28,90.6a9.4,9.4,0,0,1,1,1.05,11.71,11.71,0,0,1,1.09-1.05,8.16,8.16,0,0,1-1.09-1.07A10.1,10.1,0,0,1,27.28,90.6Z"/><path class="cls-1" d="M30.89,90.55a13.11,13.11,0,0,1,1,1,11.35,11.35,0,0,1,1-1,8.21,8.21,0,0,1-1-1.07A12.6,12.6,0,0,1,30.89,90.55Z"/><path class="cls-1" d="M34.6,90.6s.94.88,1,1.05a9.07,9.07,0,0,1,1-1.05,9,9,0,0,1-1-1.07A11.29,11.29,0,0,1,34.6,90.6Z"/><path class="cls-1" d="M38.3,90.6a9.4,9.4,0,0,1,1,1.05,9.52,9.52,0,0,1,1-1.05,8.77,8.77,0,0,1-1-1.07A13.87,13.87,0,0,1,38.3,90.6Z"/><path class="cls-1" d="M42,90.63a12,12,0,0,1,1,1.06s.63-.67,1.07-1.06a9.9,9.9,0,0,1-1.07-1A10.35,10.35,0,0,1,42,90.63Z"/><path class="cls-1" d="M21.71,88.7a7.65,7.65,0,0,0,1.08-1.78,13.78,13.78,0,0,0,1.12,1.78,5.74,5.74,0,0,1-1.12,1.16A7.74,7.74,0,0,1,21.71,88.7Z"/><path class="cls-1" d="M25.43,88.7a9.44,9.44,0,0,0,1.13-1.78,7.6,7.6,0,0,0,1.07,1.78,6.86,6.86,0,0,1-1.07,1.16A9,9,0,0,1,25.43,88.7Z"/><path class="cls-1" d="M29,88.7a8.36,8.36,0,0,0,1.09-1.78A15.08,15.08,0,0,0,31.2,88.7a6.5,6.5,0,0,1-1.13,1.16A11.61,11.61,0,0,1,29,88.7Z"/><path class="cls-1" d="M32.7,88.7a8.42,8.42,0,0,0,1.08-1.78c.06-.1.25.64,1.16,1.78a7.78,7.78,0,0,1-1.16,1.16A9,9,0,0,1,32.7,88.7Z"/><path class="cls-1" d="M36.43,88.7a6.74,6.74,0,0,0,1.08-1.78,17.21,17.21,0,0,0,1.17,1.78,8.48,8.48,0,0,1-1.17,1.16A10.76,10.76,0,0,1,36.43,88.7Z"/><path class="cls-1" d="M40.1,88.68a7.33,7.33,0,0,0,1.07-1.81,11.8,11.8,0,0,0,1.1,1.81,7.22,7.22,0,0,1-1.1,1.13A8.93,8.93,0,0,1,40.1,88.68Z"/><path class="cls-1" d="M43.81,88.7a8.23,8.23,0,0,0,1.11-1.78A7.92,7.92,0,0,0,46,88.7a6.34,6.34,0,0,1-1.09,1.16A8,8,0,0,1,43.81,88.7Z"/><path class="cls-1" d="M21.71,92.42a7.36,7.36,0,0,1,1.08,1.81,9.76,9.76,0,0,1,1.12-1.81,7.45,7.45,0,0,0-1.12-1.16A6.81,6.81,0,0,0,21.71,92.42Z"/><path class="cls-1" d="M25.43,92.42a9,9,0,0,1,1.13,1.81,6.33,6.33,0,0,1,1.07-1.81,9.52,9.52,0,0,0-1.07-1.16A7.75,7.75,0,0,0,25.43,92.42Z"/><path class="cls-1" d="M29,92.42a8,8,0,0,1,1.09,1.81,10.36,10.36,0,0,1,1.13-1.81,8.78,8.78,0,0,0-1.13-1.16A9.64,9.64,0,0,0,29,92.42Z"/><path class="cls-1" d="M32.7,92.42a8.06,8.06,0,0,1,1.08,1.81,15.53,15.53,0,0,1,1.16-1.81,11.24,11.24,0,0,0-1.16-1.16A7.77,7.77,0,0,0,32.7,92.42Z"/><path class="cls-1" d="M36.43,92.42a6.53,6.53,0,0,1,1.08,1.81,11.24,11.24,0,0,1,1.17-1.81,12.75,12.75,0,0,0-1.17-1.16A9,9,0,0,0,36.43,92.42Z"/><path class="cls-1" d="M40.1,92.46a7.65,7.65,0,0,1,1.07,1.82,8.28,8.28,0,0,1,1.1-1.82,6.37,6.37,0,0,0-1.1-1.16A9.17,9.17,0,0,0,40.1,92.46Z"/><path class="cls-1" d="M43.81,92.42a7.88,7.88,0,0,1,1.11,1.81A6.53,6.53,0,0,1,46,92.42a8.53,8.53,0,0,0-1.09-1.16A7,7,0,0,0,43.81,92.42Z"/><path class="cls-1" d="M21.71,99.17a5.65,5.65,0,0,0,.55-2.42,6.18,6.18,0,0,0-.53-2.44"/><path class="cls-1" d="M24.69,93.16a6.52,6.52,0,0,0-1.32,3.59,7.39,7.39,0,0,0,1.32,3.52,5,5,0,0,0,1.25-3.52A5.25,5.25,0,0,0,24.69,93.16Z"/><path class="cls-1" d="M28.33,93.16a6.24,6.24,0,0,0-1.24,3.59,6.83,6.83,0,0,0,1.24,3.52,5,5,0,0,0,1.26-3.52A5.23,5.23,0,0,0,28.33,93.16Z"/><path class="cls-1" d="M32,93.16a6.51,6.51,0,0,0-1.29,3.59A7.06,7.06,0,0,0,32,100.27a5.07,5.07,0,0,0,1.21-3.52A5.34,5.34,0,0,0,32,93.16Z"/><path class="cls-1" d="M35.69,93.16a6.32,6.32,0,0,0-1.27,3.59,7,7,0,0,0,1.27,3.52,5,5,0,0,0,1.25-3.52A5.25,5.25,0,0,0,35.69,93.16Z"/><path class="cls-1" d="M39.36,93.16a6.42,6.42,0,0,0-1.26,3.59,6.76,6.76,0,0,0,1.26,3.52,5,5,0,0,0,1.26-3.52A5.23,5.23,0,0,0,39.36,93.16Z"/><path class="cls-1" d="M43,93.16a6.4,6.4,0,0,0-1.3,3.59,7.35,7.35,0,0,0,1.3,3.52,5,5,0,0,0,1.26-3.52A5.23,5.23,0,0,0,43,93.16Z"/><path class="cls-1" d="M23.66,103.14s1,.9,1,1a11.56,11.56,0,0,1,1-1,9.69,9.69,0,0,1-1-1.06A11.33,11.33,0,0,1,23.66,103.14Z"/><path class="cls-1" d="M21.73,103.46a4.67,4.67,0,0,1,.4-.32,4.22,4.22,0,0,1-.4-.35"/><path class="cls-1" d="M27.28,103.14a14.14,14.14,0,0,1,1,1,10,10,0,0,1,1.09-1,13,13,0,0,1-1.09-1.06A7.35,7.35,0,0,1,27.28,103.14Z"/><path class="cls-1" d="M30.89,103.09s.94.89,1,1,.61-.64,1-1a13.33,13.33,0,0,1-1-1.06A11.51,11.51,0,0,1,30.89,103.09Z"/><path class="cls-1" d="M34.6,103.14s.94.9,1,1a8,8,0,0,1,1-1s-.74-.69-1-1.06A8,8,0,0,1,34.6,103.14Z"/><path class="cls-1" d="M38.3,103.14a14.18,14.18,0,0,1,1,1,8.34,8.34,0,0,1,1-1,14.82,14.82,0,0,1-1-1.06A9.15,9.15,0,0,1,38.3,103.14Z"/><path class="cls-1" d="M42,103.18a14,14,0,0,1,1,1s.63-.66,1.07-1A8.77,8.77,0,0,1,43,102.1,11.6,11.6,0,0,1,42,103.18Z"/><path class="cls-1" d="M21.71,101.24a7.46,7.46,0,0,0,1.08-1.8,10.93,10.93,0,0,0,1.12,1.8,6,6,0,0,1-1.12,1.16A5.77,5.77,0,0,1,21.71,101.24Z"/><path class="cls-1" d="M25.43,101.24a9.11,9.11,0,0,0,1.13-1.8,6.75,6.75,0,0,0,1.07,1.8,7.26,7.26,0,0,1-1.07,1.16A6.45,6.45,0,0,1,25.43,101.24Z"/><path class="cls-1" d="M29,101.24a8.11,8.11,0,0,0,1.09-1.8,11.7,11.7,0,0,0,1.13,1.8,6.85,6.85,0,0,1-1.13,1.16A7.67,7.67,0,0,1,29,101.24Z"/><path class="cls-1" d="M32.7,101.24a8.17,8.17,0,0,0,1.08-1.8,19,19,0,0,0,1.16,1.8,8.28,8.28,0,0,1-1.16,1.16A6.43,6.43,0,0,1,32.7,101.24Z"/><path class="cls-1" d="M36.43,101.24a6.59,6.59,0,0,0,1.08-1.8,12.87,12.87,0,0,0,1.17,1.8,9.09,9.09,0,0,1-1.17,1.16A7.28,7.28,0,0,1,36.43,101.24Z"/><path class="cls-1" d="M40.1,101.21a7.44,7.44,0,0,0,1.07-1.82,10,10,0,0,0,1.1,1.82,6.39,6.39,0,0,1-1.1,1.15A8.2,8.2,0,0,1,40.1,101.21Z"/><path class="cls-1" d="M43.81,101.24a8,8,0,0,0,1.11-1.8,7,7,0,0,0,1.09,1.8,6.68,6.68,0,0,1-1.09,1.16A5.91,5.91,0,0,1,43.81,101.24Z"/><path class="cls-1" d="M21.71,105a6.74,6.74,0,0,1,1.08,1.82A10.9,10.9,0,0,1,23.91,105a6.05,6.05,0,0,0-1.12-1.13A6.64,6.64,0,0,0,21.71,105Z"/><path class="cls-1" d="M25.43,105a8,8,0,0,1,1.13,1.82A6.78,6.78,0,0,1,27.63,105a7.33,7.33,0,0,0-1.07-1.13A7.55,7.55,0,0,0,25.43,105Z"/><path class="cls-1" d="M29,105a7.26,7.26,0,0,1,1.09,1.82A11.65,11.65,0,0,1,31.2,105a6.92,6.92,0,0,0-1.13-1.13A9.34,9.34,0,0,0,29,105Z"/><path class="cls-1" d="M32.7,105a7.31,7.31,0,0,1,1.08,1.82A18.67,18.67,0,0,1,34.94,105a8.41,8.41,0,0,0-1.16-1.13A7.55,7.55,0,0,0,32.7,105Z"/><path class="cls-1" d="M36.43,105a6,6,0,0,1,1.08,1.82A12.79,12.79,0,0,1,38.68,105a9.25,9.25,0,0,0-1.17-1.13A8.77,8.77,0,0,0,36.43,105Z"/><path class="cls-1" d="M40.1,105a8,8,0,0,1,1.07,1.79,11.26,11.26,0,0,1,1.1-1.79,5.53,5.53,0,0,0-1.1-1.16A7.89,7.89,0,0,0,40.1,105Z"/><path class="cls-1" d="M43.81,105a7.16,7.16,0,0,1,1.11,1.82A7,7,0,0,1,46,105a6.74,6.74,0,0,0-1.09-1.13A6.83,6.83,0,0,0,43.81,105Z"/><path class="cls-1" d="M21.73,74.2a6.11,6.11,0,0,0,.53-2.45,6,6,0,0,0-.53-2.39"/><path class="cls-1" d="M46,61.52a5.37,5.37,0,0,1-.56-2.4H46Z"/><path class="cls-1" d="M46,106.87a5.47,5.47,0,0,0-.56,2.4H46Z"/><path class="cls-1" d="M46,65.88a1.54,1.54,0,0,0-.37-.33l.37-.37"/><path class="cls-1" d="M46,86.62a5.59,5.59,0,0,1-.56-2.41,6.37,6.37,0,0,1,.51-2.41"/><path class="cls-1" d="M46,91a3.07,3.07,0,0,0-.37-.36l.37-.34"/><path class="cls-1" d="M46,99.17a5.51,5.51,0,0,1,0-4.86"/><path class="cls-1" d="M46,103.46c-.12-.11-.26-.21-.37-.32a3.48,3.48,0,0,1,.37-.35"/><path class="cls-1" d="M46,74.2a5.9,5.9,0,0,1-.56-2.45A5.46,5.46,0,0,1,46,69.36"/><path class="cls-1" d="M24.69,68.18a6.67,6.67,0,0,0-1.32,3.57,7.45,7.45,0,0,0,1.32,3.54,5,5,0,0,0,1.25-3.54A5.23,5.23,0,0,0,24.69,68.18Z"/><path class="cls-1" d="M28.33,68.18a6.36,6.36,0,0,0-1.24,3.57,6.89,6.89,0,0,0,1.24,3.54,5,5,0,0,0,1.26-3.54A5.2,5.2,0,0,0,28.33,68.18Z"/><path class="cls-1" d="M32,68.18a6.66,6.66,0,0,0-1.29,3.57A7.13,7.13,0,0,0,32,75.29a5.1,5.1,0,0,0,1.21-3.54A5.32,5.32,0,0,0,32,68.18Z"/><path class="cls-1" d="M35.69,68.18a6.45,6.45,0,0,0-1.27,3.57,7.1,7.1,0,0,0,1.27,3.54,5,5,0,0,0,1.25-3.54A5.23,5.23,0,0,0,35.69,68.18Z"/><path class="cls-1" d="M39.36,68.18a6.56,6.56,0,0,0-1.26,3.57,6.83,6.83,0,0,0,1.26,3.54,5,5,0,0,0,1.26-3.54A5.2,5.2,0,0,0,39.36,68.18Z"/><path class="cls-1" d="M43,68.18a6.55,6.55,0,0,0-1.3,3.57A7.42,7.42,0,0,0,43,75.29a5,5,0,0,0,1.26-3.54A5.2,5.2,0,0,0,43,68.18Z"/><path class="cls-1" d="M23.66,78.18a9.92,9.92,0,0,1,1,1,11.56,11.56,0,0,1,1-1,9.16,9.16,0,0,1-1-1.07S24,77.85,23.66,78.18Z"/><path class="cls-1" d="M21.71,78.52a1.85,1.85,0,0,1,.42-.34,3.91,3.91,0,0,1-.4-.38"/><path class="cls-1" d="M27.28,78.18a9,9,0,0,1,1,1,10,10,0,0,1,1.09-1,12,12,0,0,1-1.09-1.07A9.19,9.19,0,0,1,27.28,78.18Z"/><path class="cls-1" d="M30.89,78.14a13.22,13.22,0,0,1,1,1,9.53,9.53,0,0,1,1-1,8.1,8.1,0,0,1-1-1.11S31.27,77.78,30.89,78.14Z"/><path class="cls-1" d="M34.6,78.18s.94.86,1,1a8,8,0,0,1,1-1,14.06,14.06,0,0,1-1-1.07A10.16,10.16,0,0,1,34.6,78.18Z"/><path class="cls-1" d="M38.3,78.18a9,9,0,0,1,1,1,8.34,8.34,0,0,1,1-1,13.57,13.57,0,0,1-1-1.07A12.19,12.19,0,0,1,38.3,78.18Z"/><path class="cls-1" d="M42,78.2a11.67,11.67,0,0,1,1,1,13.46,13.46,0,0,1,1.07-1A9.74,9.74,0,0,1,43,77.14,14.07,14.07,0,0,1,42,78.2Z"/><path class="cls-1" d="M21.71,76.26a7.44,7.44,0,0,0,1.08-1.78,14.75,14.75,0,0,0,1.12,1.78,5.5,5.5,0,0,1-1.12,1.14A6.08,6.08,0,0,1,21.71,76.26Z"/><path class="cls-1" d="M25.43,76.26a9.11,9.11,0,0,0,1.13-1.78,7.87,7.87,0,0,0,1.07,1.78c.06.07-.83.93-1.07,1.14A6.84,6.84,0,0,1,25.43,76.26Z"/><path class="cls-1" d="M29,76.26a8.1,8.1,0,0,0,1.09-1.78,16.25,16.25,0,0,0,1.13,1.78,6.2,6.2,0,0,1-1.13,1.14A8.26,8.26,0,0,1,29,76.26Z"/><path class="cls-1" d="M32.7,76.26a8.16,8.16,0,0,0,1.08-1.78c.06-.12.25.65,1.16,1.78a7.37,7.37,0,0,1-1.16,1.14A6.83,6.83,0,0,1,32.7,76.26Z"/><path class="cls-1" d="M36.43,76.26a6.57,6.57,0,0,0,1.08-1.78,18.77,18.77,0,0,0,1.17,1.78,8,8,0,0,1-1.17,1.14A7.81,7.81,0,0,1,36.43,76.26Z"/><path class="cls-1" d="M40.1,76.2a7.39,7.39,0,0,0,1.07-1.78,12.25,12.25,0,0,0,1.1,1.78,5.3,5.3,0,0,1-1.1,1.14A7.39,7.39,0,0,1,40.1,76.2Z"/><path class="cls-1" d="M43.81,76.26a8,8,0,0,0,1.11-1.78A8.21,8.21,0,0,0,46,76.26c.06.07-.83.93-1.09,1.14A6.24,6.24,0,0,1,43.81,76.26Z"/><path class="cls-1" d="M21.71,80a7.91,7.91,0,0,1,1.08,1.82A10.41,10.41,0,0,1,23.91,80a8.47,8.47,0,0,0-1.12-1.16A7.74,7.74,0,0,0,21.71,80Z"/><path class="cls-1" d="M25.43,80a9.77,9.77,0,0,1,1.13,1.82A6.6,6.6,0,0,1,27.63,80a11.3,11.3,0,0,0-1.07-1.16A9,9,0,0,0,25.43,80Z"/><path class="cls-1" d="M29,80a8.64,8.64,0,0,1,1.09,1.82A11.09,11.09,0,0,1,31.2,80a10.22,10.22,0,0,0-1.13-1.16A11.61,11.61,0,0,0,29,80Z"/><path class="cls-1" d="M32.7,80a8.71,8.71,0,0,1,1.08,1.82A17.23,17.23,0,0,1,34.94,80a13.69,13.69,0,0,0-1.16-1.16A9,9,0,0,0,32.7,80Z"/><path class="cls-1" d="M36.43,80a7,7,0,0,1,1.08,1.82A12.11,12.11,0,0,1,38.68,80a16,16,0,0,0-1.17-1.16A10.76,10.76,0,0,0,36.43,80Z"/><path class="cls-1" d="M40.1,80a7.86,7.86,0,0,1,1.07,1.8,11.53,11.53,0,0,1,1.1-1.8,8.09,8.09,0,0,0-1.1-1.15A9.61,9.61,0,0,0,40.1,80Z"/><path class="cls-1" d="M43.81,80a8.51,8.51,0,0,1,1.11,1.82A6.82,6.82,0,0,1,46,80a9.92,9.92,0,0,0-1.09-1.16A8,8,0,0,0,43.81,80Z"/><path class="cls-1" d="M48.66,61.52a9.08,9.08,0,0,0,.48-2.85l-.52.22Z"/><path class="cls-1" d="M50.08,58.06A4.68,4.68,0,0,0,51.24,61a9.76,9.76,0,0,0,1.15-4.26"/><path class="cls-1" d="M53.35,56.07a4.63,4.63,0,0,0,1.14,2.86A9.37,9.37,0,0,0,55.7,54.7"/><path class="cls-1" d="M56.59,54.24a3.56,3.56,0,0,0,1.13,2.64,8.6,8.6,0,0,0,1.12-4"/><path class="cls-1" d="M48.66,105.54a3.36,3.36,0,0,1,.46,2l-.5.38Z"/><path class="cls-1" d="M50.16,106.74a13.7,13.7,0,0,1,1.08-4.34s1.29.25,1.29,2.46"/><path class="cls-1" d="M53.35,104.34a15.06,15.06,0,0,1,1.14-4.51s1.54-.23,1.11,2.91"/><path class="cls-1" d="M56.52,101.91a17.91,17.91,0,0,1,1.2-4.67s1.49.1,1.17,3"/><path class="cls-1" d="M50.37,64.32a5.06,5.06,0,0,1,.91.41s.53-1,.91-1.59a3.42,3.42,0,0,1-.91-.44S50.71,63.76,50.37,64.32Z"/><path class="cls-1" d="M48.62,65.74a4.44,4.44,0,0,0,.42-.55,2.81,2.81,0,0,0-.38-.14"/><path class="cls-1" d="M53.57,62.27a4.8,4.8,0,0,1,.92.36s.54-1,1-1.59a3.8,3.8,0,0,1-1-.4S53.94,61.71,53.57,62.27Z"/><path class="cls-1" d="M56.74,60.17a4.76,4.76,0,0,1,.92.37s.54-1,.9-1.61a4.58,4.58,0,0,1-.9-.35S57.09,59.66,56.74,60.17Z"/><path class="cls-1" d="M48.62,63.6a19.35,19.35,0,0,0,1-2.34,4.18,4.18,0,0,0,1,1.1s-.74,1.36-1,1.7A3.11,3.11,0,0,1,48.62,63.6Z"/><path class="cls-1" d="M51.94,61.52a18.55,18.55,0,0,0,1-2.34,3.75,3.75,0,0,0,1,1.07s-.75,1.36-1,1.73A3.06,3.06,0,0,1,51.94,61.52Z"/><path class="cls-1" d="M55,59.49a17,17,0,0,0,1-2.31,3.28,3.28,0,0,0,1,1.09S56.26,59.6,56,60A2.44,2.44,0,0,1,55,59.49Z"/><path class="cls-1" d="M58.33,57.37a13.54,13.54,0,0,0,.94-2.32c.07-.07.21.5,1,1.06,0,0-.75,1.35-1,1.71A3.25,3.25,0,0,1,58.33,57.37Z"/><path class="cls-1" d="M48.62,67.17s.87.7,1,1.13a13.53,13.53,0,0,1,1-2.39,3,3,0,0,0-1-.46A19.68,19.68,0,0,0,48.62,67.17Z"/><path class="cls-1" d="M51.94,65.05s.83.64,1,1.09a18.75,18.75,0,0,1,1-2.36,4.82,4.82,0,0,0-1-.46A14.88,14.88,0,0,0,51.94,65.05Z"/><path class="cls-1" d="M55,63s.85.64,1,1.07a15.34,15.34,0,0,1,1-2.35,3.69,3.69,0,0,0-1-.42S55.31,62.42,55,63Z"/><path class="cls-1" d="M58.33,60.84s.85.59.94,1c.07.06.21-.76,1-2.32,0-.09-.75-.38-1-.44C59.27,59.12,58.61,60.25,58.33,60.84Z"/><path class="cls-1" d="M48.66,85.89a9.24,9.24,0,0,0,.46-2.68,3.91,3.91,0,0,0-.42-2"/><path class="cls-1" d="M51.24,78.29a11,11,0,0,0-1.08,4.2,3.41,3.41,0,0,0,1.08,2.64,9.52,9.52,0,0,0,1.12-4.19C52.36,78.68,51.24,78.29,51.24,78.29Z"/><path class="cls-1" d="M54.49,76a12.19,12.19,0,0,0-1.14,4.16,3.43,3.43,0,0,0,1.14,2.58,9.4,9.4,0,0,0,1.11-4.18C55.6,76.4,54.49,76,54.49,76Z"/><path class="cls-1" d="M57.72,73.72a12.43,12.43,0,0,0-1.13,4.15,3.31,3.31,0,0,0,1.13,2.56,9.77,9.77,0,0,0,1.12-4.17C58.84,74.06,57.72,73.72,57.72,73.72Z"/><path class="cls-1" d="M50.37,88.53a3.83,3.83,0,0,1,.91.32s.53-1,.91-1.69a3.09,3.09,0,0,1-.91-.34S50.71,88,50.37,88.53Z"/><path class="cls-1" d="M48.62,90.09c.18-.19.27-.43.42-.59a1.77,1.77,0,0,1-.38-.1"/><path class="cls-1" d="M53.57,86.15a3.83,3.83,0,0,1,.92.31s.54-1.06,1-1.69a3.62,3.62,0,0,1-1-.28S53.94,85.59,53.57,86.15Z"/><path class="cls-1" d="M56.74,83.76a7.28,7.28,0,0,1,.92.27s.54-1,.9-1.66a3.21,3.21,0,0,1-.9-.3S57.09,83.2,56.74,83.76Z"/><path class="cls-1" d="M48.62,87.92a17.8,17.8,0,0,0,1-2.42,3.28,3.28,0,0,0,1,1s-.74,1.41-1,1.81A2.56,2.56,0,0,1,48.62,87.92Z"/><path class="cls-1" d="M51.94,85.56a19.92,19.92,0,0,0,1-2.43,3.21,3.21,0,0,0,1,1s-.75,1.41-1,1.78A2.35,2.35,0,0,1,51.94,85.56Z"/><path class="cls-1" d="M55,83.27a22.29,22.29,0,0,0,1-2.41,2.89,2.89,0,0,0,1,1s-.74,1.43-1,1.81A2.8,2.8,0,0,1,55,83.27Z"/><path class="cls-1" d="M58.33,80.84a15.11,15.11,0,0,0,.94-2.42c.07-.06.21.52,1,1a16.78,16.78,0,0,1-1,1.8A2.72,2.72,0,0,1,58.33,80.84Z"/><path class="cls-1" d="M48.62,91.52s.87.58,1,1a19.11,19.11,0,0,1,1-2.44c0-.09-.74-.36-1-.41C49.62,89.71,48.89,90.9,48.62,91.52Z"/><path class="cls-1" d="M51.94,89.11s.83.55,1,1a18.07,18.07,0,0,1,1-2.47c0-.08-.75-.32-1-.35A17.69,17.69,0,0,0,51.94,89.11Z"/><path class="cls-1" d="M55,86.78s.85.52,1,1a15.56,15.56,0,0,1,1-2.46c0-.07-.74-.28-1-.33C56,85,55.31,86.15,55,86.78Z"/><path class="cls-1" d="M58.33,84.3s.85.48.94.92c.07.06.21-.73,1-2.4a2.94,2.94,0,0,0-1-.33S58.61,83.66,58.33,84.3Z"/><path class="cls-1" d="M48.62,98.11a8.31,8.31,0,0,0,.5-2.74,3.55,3.55,0,0,0-.46-2"/><path class="cls-1" d="M51.24,90.33a11.85,11.85,0,0,0-1.08,4.29,3.23,3.23,0,0,0,1.08,2.58,10,10,0,0,0,1.12-4.27C52.36,90.7,51.24,90.33,51.24,90.33Z"/><path class="cls-1" d="M54.49,88a12.54,12.54,0,0,0-1.14,4.2,3.26,3.26,0,0,0,1.14,2.54,10.06,10.06,0,0,0,1.11-4.21C55.6,88.26,54.49,88,54.49,88Z"/><path class="cls-1" d="M57.72,85.5a12.78,12.78,0,0,0-1.13,4.16,3,3,0,0,0,1.13,2.48A9.86,9.86,0,0,0,58.84,88C58.84,85.77,57.72,85.5,57.72,85.5Z"/><path class="cls-1" d="M50.37,100.63s.87.16.91.29.53-1.09.91-1.75a3.59,3.59,0,0,1-.91-.27S50.71,100,50.37,100.63Z"/><path class="cls-1" d="M48.62,102.27a7.4,7.4,0,0,0,.42-.61,1.33,1.33,0,0,1-.38-.07"/><path class="cls-1" d="M53.57,98.11a5.24,5.24,0,0,1,.92.26s.54-1.09,1-1.73a3.36,3.36,0,0,1-1-.26S53.94,97.51,53.57,98.11Z"/><path class="cls-1" d="M56.74,95.58a3.59,3.59,0,0,1,.92.24s.54-1.08.9-1.74a3,3,0,0,1-.9-.23S57.09,95,56.74,95.58Z"/><path class="cls-1" d="M48.62,100.1a18,18,0,0,0,1-2.47,3.31,3.31,0,0,0,1,1s-.74,1.47-1,1.82A2.29,2.29,0,0,1,48.62,100.1Z"/><path class="cls-1" d="M51.94,97.57a22.54,22.54,0,0,0,1-2.44,3.3,3.3,0,0,0,1,1s-.75,1.44-1,1.83A2.38,2.38,0,0,1,51.94,97.57Z"/><path class="cls-1" d="M55,95.13a20.4,20.4,0,0,0,1-2.47,2.38,2.38,0,0,0,1,1,18.47,18.47,0,0,1-1,1.86A2,2,0,0,1,55,95.13Z"/><path class="cls-1" d="M58.33,92.55a15.72,15.72,0,0,0,.94-2.43c.07-.09.21.47,1,.9,0,0-.75,1.44-1,1.83A2.14,2.14,0,0,1,58.33,92.55Z"/><path class="cls-1" d="M48.62,103.67s.87.56,1,1a19.71,19.71,0,0,1,1-2.48c0-.1-.74-.33-1-.35C49.62,101.85,48.89,103.05,48.62,103.67Z"/><path class="cls-1" d="M51.94,101.11s.83.55,1,1a17.73,17.73,0,0,1,1-2.5c0-.08-.75-.29-1-.34C52.9,99.26,52.19,100.5,51.94,101.11Z"/><path class="cls-1" d="M55,98.64s.85.49,1,1a14.93,14.93,0,0,1,1-2.49c0-.09-.74-.29-1-.3C56,96.81,55.31,98,55,98.64Z"/><path class="cls-1" d="M58.33,96s.85.53.94,1c.07,0,.21-.8,1-2.51,0-.08-.75-.25-1-.25C59.27,94.18,58.61,95.41,58.33,96Z"/><path class="cls-1" d="M48.62,73.8a7.75,7.75,0,0,0,.5-2.64,4.06,4.06,0,0,0-.46-2"/><path class="cls-1" d="M60.28,54.22a3.68,3.68,0,0,1-.45-1.92l.45-.32Z"/><path class="cls-1" d="M60.28,96.28a15.65,15.65,0,0,0-.49,3.39l.49-.61Z"/><path class="cls-1" d="M60.28,58.27a.42.42,0,0,0-.33-.12,4.65,4.65,0,0,0,.33-.55"/><path class="cls-1" d="M60.35,69.67,60,69.6s.14-.22.34-.56"/><path class="cls-1" d="M60.28,77.49a3.48,3.48,0,0,1-.45-1.91,8.27,8.27,0,0,1,.45-2.52"/><path class="cls-1" d="M60.28,81.53c-.05-.07-.18-.07-.33-.07s.16-.26.33-.6"/><path class="cls-1" d="M60.28,89.14a3.8,3.8,0,0,1-.45-1.89,8.69,8.69,0,0,1,.45-2.59"/><path class="cls-1" d="M60.28,93.16a1.6,1.6,0,0,0-.33,0s.16-.27.33-.63"/><path class="cls-1" d="M60.28,66a4.29,4.29,0,0,1-.45-2,8.26,8.26,0,0,1,.45-2.51"/><path class="cls-1" d="M51.24,66.29a11,11,0,0,0-1.08,4.2,3.63,3.63,0,0,0,1.08,2.67A9.21,9.21,0,0,0,52.36,69C52.36,66.75,51.24,66.29,51.24,66.29Z"/><path class="cls-1" d="M54.49,64.21a11.86,11.86,0,0,0-1.14,4.13A3.56,3.56,0,0,0,54.49,71a9.14,9.14,0,0,0,1.11-4.14C55.6,64.64,54.49,64.21,54.49,64.21Z"/><path class="cls-1" d="M57.72,62.07a11.67,11.67,0,0,0-1.13,4.07,3.34,3.34,0,0,0,1.13,2.57,9,9,0,0,0,1.12-4.07C58.84,62.47,57.72,62.07,57.72,62.07Z"/><path class="cls-1" d="M50.37,76.49s.87.26.91.38.53-1,.91-1.61a3.17,3.17,0,0,1-.91-.42S50.71,76,50.37,76.49Z"/><path class="cls-1" d="M48.62,78a2.63,2.63,0,0,1,.42-.57,3.79,3.79,0,0,1-.38-.14"/><path class="cls-1" d="M53.57,74.29a6.14,6.14,0,0,1,.92.33s.54-1,1-1.63a2.85,2.85,0,0,1-1-.37S53.94,73.73,53.57,74.29Z"/><path class="cls-1" d="M56.74,72a3.92,3.92,0,0,1,.92.34s.54-1,.9-1.63a5.06,5.06,0,0,1-.9-.34S57.09,71.51,56.74,72Z"/><path class="cls-1" d="M48.62,75.84a16.26,16.26,0,0,0,1-2.38,3.51,3.51,0,0,0,1,1.08s-.74,1.39-1,1.76A2.9,2.9,0,0,1,48.62,75.84Z"/><path class="cls-1" d="M51.94,73.64a19.38,19.38,0,0,0,1-2.39,3.27,3.27,0,0,0,1,1s-.75,1.42-1,1.8A2.92,2.92,0,0,1,51.94,73.64Z"/><path class="cls-1" d="M55,71.45a19.16,19.16,0,0,0,1-2.34,3.06,3.06,0,0,0,1,1s-.74,1.36-1,1.76A2.69,2.69,0,0,1,55,71.45Z"/><path class="cls-1" d="M58.33,69.21a15.3,15.3,0,0,0,.94-2.37c.07-.1.21.5,1,1,0,0-.75,1.34-1,1.71A2.88,2.88,0,0,1,58.33,69.21Z"/><path class="cls-1" d="M48.62,79.43s.87.63,1,1.1a16,16,0,0,1,1-2.42c0-.09-.74-.4-1-.48A17.72,17.72,0,0,0,48.62,79.43Z"/><path class="cls-1" d="M51.94,77.16s.83.57,1,1.07a17.21,17.21,0,0,1,1-2.4c0-.09-.75-.39-1-.43A17.35,17.35,0,0,0,51.94,77.16Z"/><path class="cls-1" d="M55,75s.85.58,1,1a15.32,15.32,0,0,1,1-2.37c0-.1-.74-.36-1-.4C56,73.22,55.31,74.36,55,75Z"/><path class="cls-1" d="M58.33,72.62s.85.56.94,1c.07.06.21-.77,1-2.37a3,3,0,0,0-1-.39S58.61,72,58.33,72.62Z"/><path class="cls-1" d="M18.87,61.2a10.2,10.2,0,0,1-.48-2.85l.48.23Z"/><path class="cls-1" d="M17.44,57.75a4.44,4.44,0,0,1-1.15,3,9.91,9.91,0,0,1-1.12-4.27"/><path class="cls-1" d="M14.16,55.78a4.62,4.62,0,0,1-1.1,2.89,9.59,9.59,0,0,1-1.24-4.28"/><path class="cls-1" d="M10.94,54a3.58,3.58,0,0,1-1.1,2.63,8.87,8.87,0,0,1-1.11-4"/><path class="cls-1" d="M18.87,105.25a3.64,3.64,0,0,0-.46,2l.46.35Z"/><path class="cls-1" d="M17.37,106.41a14.39,14.39,0,0,0-1.08-4.31s-1.28.21-1.28,2.47"/><path class="cls-1" d="M14.21,104.05a16.14,16.14,0,0,0-1.15-4.53s-1.54-.26-1.11,2.92"/><path class="cls-1" d="M11,101.63A17.66,17.66,0,0,0,9.84,97s-1.49,0-1.17,3"/><path class="cls-1" d="M17.17,64a4.84,4.84,0,0,0-.92.4s-.55-1-.91-1.58a4.11,4.11,0,0,0,.91-.43S16.81,63.48,17.17,64Z"/><path class="cls-1" d="M18.87,65.45c-.1-.18-.23-.4-.34-.56a2.25,2.25,0,0,1,.34-.12"/><path class="cls-1" d="M14,62a4.13,4.13,0,0,0-.91.38s-.56-1-.92-1.57a3.59,3.59,0,0,0,.92-.44S13.62,61.41,14,62Z"/><path class="cls-1" d="M10.8,59.87a7.13,7.13,0,0,0-.92.34s-.52-1-.91-1.54a4.5,4.5,0,0,0,.91-.4S10.42,59.32,10.8,59.87Z"/><path class="cls-1" d="M18.89,63.27a16.09,16.09,0,0,1-1-2.34,4.11,4.11,0,0,1-1,1.14s.75,1.34,1,1.69A2,2,0,0,0,18.89,63.27Z"/><path class="cls-1" d="M15.57,61.2a17.42,17.42,0,0,1-.92-2.33,4.09,4.09,0,0,1-1,1.09s.75,1.37,1,1.73A2.34,2.34,0,0,0,15.57,61.2Z"/><path class="cls-1" d="M12.46,59.18a13.65,13.65,0,0,1-.94-2.3,5.08,5.08,0,0,1-1,1.1c-.06,0,.77,1.31,1,1.68A2.44,2.44,0,0,0,12.46,59.18Z"/><path class="cls-1" d="M9.19,57.05a18.34,18.34,0,0,1-1-2.28,2.87,2.87,0,0,1-1,1s.75,1.33,1,1.7A2.6,2.6,0,0,0,9.19,57.05Z"/><path class="cls-1" d="M18.89,66.85s-.84.65-1,1.14a15.53,15.53,0,0,0-1-2.39,4.78,4.78,0,0,1,1-.45A14.49,14.49,0,0,1,18.89,66.85Z"/><path class="cls-1" d="M15.57,64.75a3.66,3.66,0,0,0-.92,1.09,18.23,18.23,0,0,0-1-2.36,4.22,4.22,0,0,1,1-.45A11.12,11.12,0,0,1,15.57,64.75Z"/><path class="cls-1" d="M12.46,62.7s-.84.62-.94,1.06c0,.1-.19-.73-1-2.33-.06-.07.77-.39,1-.43A19.14,19.14,0,0,1,12.46,62.7Z"/><path class="cls-1" d="M9.19,60.54s-.84.58-1,1a17,17,0,0,0-1-2.31,3.85,3.85,0,0,1,1-.43S8.93,60,9.19,60.54Z"/><path class="cls-1" d="M18.87,85.56a8.9,8.9,0,0,1-.46-2.64,3.63,3.63,0,0,1,.46-2"/><path class="cls-1" d="M16.29,78a11.5,11.5,0,0,1,1.08,4.19,3.46,3.46,0,0,1-1.08,2.61,9.46,9.46,0,0,1-1.12-4.19C15.17,78.39,16.29,78,16.29,78Z"/><path class="cls-1" d="M13.06,75.74a11.88,11.88,0,0,1,1.13,4.17,3.47,3.47,0,0,1-1.13,2.57A9.53,9.53,0,0,1,12,78.29C12,76.09,13.06,75.74,13.06,75.74Z"/><path class="cls-1" d="M9.84,73.44a11.78,11.78,0,0,1,1.1,4.14,3.26,3.26,0,0,1-1.1,2.52A9.53,9.53,0,0,1,8.73,76C8.73,73.76,9.84,73.44,9.84,73.44Z"/><path class="cls-1" d="M17.17,88.23a3.33,3.33,0,0,0-.92.33s-.55-1-.91-1.69a3,3,0,0,0,.91-.35S16.81,87.65,17.17,88.23Z"/><path class="cls-1" d="M18.87,89.81a5.58,5.58,0,0,0-.34-.6,1.42,1.42,0,0,1,.34-.1"/><path class="cls-1" d="M14,85.86a4.5,4.5,0,0,0-.91.29s-.56-1.06-.92-1.64a3.5,3.5,0,0,0,.92-.36S13.62,85.28,14,85.86Z"/><path class="cls-1" d="M10.8,83.46a4.49,4.49,0,0,0-.92.28s-.52-1-.91-1.67a4.12,4.12,0,0,0,.91-.3A18.75,18.75,0,0,0,10.8,83.46Z"/><path class="cls-1" d="M18.89,87.63a19.27,19.27,0,0,1-1-2.44,3.37,3.37,0,0,1-1,1s.75,1.41,1,1.8A2.83,2.83,0,0,0,18.89,87.63Z"/><path class="cls-1" d="M15.57,85.27a19.6,19.6,0,0,1-.92-2.45,3.3,3.3,0,0,1-1,1.05s.75,1.4,1,1.8A2.54,2.54,0,0,0,15.57,85.27Z"/><path class="cls-1" d="M12.46,83a16.15,16.15,0,0,1-.94-2.4c0-.07-.19.5-1,1-.06,0,.77,1.4,1,1.79A2.3,2.3,0,0,0,12.46,83Z"/><path class="cls-1" d="M9.19,80.53a22,22,0,0,1-1-2.39,3.12,3.12,0,0,1-1,.94s.75,1.4,1,1.78A2.72,2.72,0,0,0,9.19,80.53Z"/><path class="cls-1" d="M18.89,91.22s-.84.59-1,1a19.29,19.29,0,0,0-1-2.43c0-.1.75-.36,1-.38A17.79,17.79,0,0,1,18.89,91.22Z"/><path class="cls-1" d="M15.57,88.8s-.8.55-.92,1a20.32,20.32,0,0,0-1-2.44c0-.09.75-.35,1-.39A15.77,15.77,0,0,1,15.57,88.8Z"/><path class="cls-1" d="M12.46,86.46s-.84.52-.94,1c0,0-.19-.8-1-2.46a3.5,3.5,0,0,1,1-.35S12.21,85.86,12.46,86.46Z"/><path class="cls-1" d="M9.19,84s-.84.52-1,1a13.33,13.33,0,0,0-1-2.47,3.65,3.65,0,0,1,1-.32A19.2,19.2,0,0,1,9.19,84Z"/><path class="cls-1" d="M18.87,97.79a9.4,9.4,0,0,1-.46-2.71,3.71,3.71,0,0,1,.46-2"/><path class="cls-1" d="M16.29,90.08a11.28,11.28,0,0,1,1.08,4.23,3.2,3.2,0,0,1-1.08,2.55,9.78,9.78,0,0,1-1.12-4.22C15.17,90.38,16.29,90.08,16.29,90.08Z"/><path class="cls-1" d="M13.06,87.65a12.21,12.21,0,0,1,1.13,4.21,3.39,3.39,0,0,1-1.13,2.54A10.08,10.08,0,0,1,12,90.18C12,88,13.06,87.65,13.06,87.65Z"/><path class="cls-1" d="M9.84,85.19a12.36,12.36,0,0,1,1.1,4.2,3.09,3.09,0,0,1-1.1,2.47,9.83,9.83,0,0,1-1.11-4.21C8.73,85.47,9.84,85.19,9.84,85.19Z"/><path class="cls-1" d="M17.17,100.32a4.24,4.24,0,0,0-.92.28s-.55-1.08-.91-1.7a3,3,0,0,0,.91-.32S16.81,99.73,17.17,100.32Z"/><path class="cls-1" d="M18.87,102a6.75,6.75,0,0,0-.34-.6l.34-.08"/><path class="cls-1" d="M14,97.81a3.4,3.4,0,0,0-.91.27s-.56-1.1-.92-1.7a4.75,4.75,0,0,0,.92-.29S13.62,97.22,14,97.81Z"/><path class="cls-1" d="M10.8,95.27a3.81,3.81,0,0,0-.92.26s-.52-1.1-.91-1.74a2.7,2.7,0,0,0,.91-.25A18.85,18.85,0,0,0,10.8,95.27Z"/><path class="cls-1" d="M18.89,99.81a19.5,19.5,0,0,1-1-2.47,2.82,2.82,0,0,1-1,1c0,.06.75,1.49,1,1.9A2.79,2.79,0,0,0,18.89,99.81Z"/><path class="cls-1" d="M15.57,97.28a22,22,0,0,1-.92-2.46,3,3,0,0,1-1,1s.75,1.45,1,1.86A2.23,2.23,0,0,0,15.57,97.28Z"/><path class="cls-1" d="M12.46,94.83a16.82,16.82,0,0,1-.94-2.45c0-.1-.19.51-1,.93-.06,0,.77,1.48,1,1.87A2.18,2.18,0,0,0,12.46,94.83Z"/><path class="cls-1" d="M9.19,92.24a20.93,20.93,0,0,1-1-2.43,3.12,3.12,0,0,1-1,.92s.75,1.42,1,1.82A2.11,2.11,0,0,0,9.19,92.24Z"/><path class="cls-1" d="M18.89,103.45s-.84.51-1,1a18.58,18.58,0,0,0-1-2.52c0-.09.75-.3,1-.33A17.44,17.44,0,0,1,18.89,103.45Z"/><path class="cls-1" d="M15.57,100.82s-.8.51-.92,1a23.15,23.15,0,0,0-1-2.46c0-.09.75-.32,1-.35A14.89,14.89,0,0,1,15.57,100.82Z"/><path class="cls-1" d="M12.46,98.35s-.84.51-.94.91c0,.11-.19-.75-1-2.45-.06-.11.77-.27,1-.31A17.67,17.67,0,0,1,12.46,98.35Z"/><path class="cls-1" d="M9.19,95.71s-.84.47-1,.92a14.61,14.61,0,0,0-1-2.48c0-.12.75-.26,1-.26A20.63,20.63,0,0,1,9.19,95.71Z"/><path class="cls-1" d="M18.87,73.52a9,9,0,0,1-.46-2.67,4.16,4.16,0,0,1,.46-2.06"/><path class="cls-1" d="M7.25,53.93a3.48,3.48,0,0,0,.45-2l-.45-.3Z"/><path class="cls-1" d="M7.25,96a13.64,13.64,0,0,1,.5,3.4l-.5-.6Z"/><path class="cls-1" d="M7.25,57.93c.12,0,.24-.07.36-.07s-.17-.24-.36-.57"/><path class="cls-1" d="M7.19,69.39c.12,0,.24-.08.36-.08s-.17-.25-.36-.56"/><path class="cls-1" d="M7.25,77.19a3.33,3.33,0,0,0,.45-1.9,7.35,7.35,0,0,0-.44-2.5"/><path class="cls-1" d="M7.25,81.21a2.25,2.25,0,0,1,.36-.06s-.17-.25-.36-.59"/><path class="cls-1" d="M7.25,88.85A3.26,3.26,0,0,0,7.7,87a7.69,7.69,0,0,0-.45-2.59"/><path class="cls-1" d="M7.25,92.85a1.13,1.13,0,0,1,.36-.06s-.17-.26-.36-.6"/><path class="cls-1" d="M7.25,65.64a3.43,3.43,0,0,0,.45-1.92,8.2,8.2,0,0,0-.45-2.57"/><path class="cls-1" d="M16.29,66.06a10.73,10.73,0,0,1,1.08,4.13,3.75,3.75,0,0,1-1.08,2.68,9.44,9.44,0,0,1-1.12-4.17C15.17,66.45,16.29,66.06,16.29,66.06Z"/><path class="cls-1" d="M13.06,63.91A11.3,11.3,0,0,1,14.19,68a3.78,3.78,0,0,1-1.13,2.69A9.39,9.39,0,0,1,12,66.51C12,64.32,13.06,63.91,13.06,63.91Z"/><path class="cls-1" d="M9.84,61.76a11.23,11.23,0,0,1,1.1,4.08,3.51,3.51,0,0,1-1.1,2.59,9.23,9.23,0,0,1-1.11-4.09C8.73,62.15,9.84,61.76,9.84,61.76Z"/><path class="cls-1" d="M17.17,76.2a4,4,0,0,0-.92.37s-.55-1-.91-1.63a3.63,3.63,0,0,0,.91-.4S16.81,75.64,17.17,76.2Z"/><path class="cls-1" d="M18.89,77.71c-.12-.18-.25-.4-.36-.57a1.4,1.4,0,0,0,.34-.13"/><path class="cls-1" d="M14,74a3.83,3.83,0,0,0-.91.34s-.56-1-.92-1.59a3.57,3.57,0,0,0,.92-.39S13.62,73.46,14,74Z"/><path class="cls-1" d="M10.8,71.75s-.86.21-.92.33-.52-1-.91-1.61a3.15,3.15,0,0,0,.91-.37A17.29,17.29,0,0,0,10.8,71.75Z"/><path class="cls-1" d="M18.89,75.54a16.56,16.56,0,0,1-1-2.38,3.66,3.66,0,0,1-1,1,18.87,18.87,0,0,0,1,1.78A2.28,2.28,0,0,0,18.89,75.54Z"/><path class="cls-1" d="M15.57,73.3a16.6,16.6,0,0,1-.92-2.38,3.23,3.23,0,0,1-1,1,18.32,18.32,0,0,0,1,1.79A2,2,0,0,0,15.57,73.3Z"/><path class="cls-1" d="M12.46,71.16a15.06,15.06,0,0,1-.94-2.37c0-.08-.19.52-1,1-.06,0,.77,1.38,1,1.74A2.66,2.66,0,0,0,12.46,71.16Z"/><path class="cls-1" d="M9.19,68.87a18.79,18.79,0,0,1-1-2.34,2.65,2.65,0,0,1-1,1s.75,1.41,1,1.77A2.67,2.67,0,0,0,9.19,68.87Z"/><path class="cls-1" d="M18.89,79.12s-.84.61-1,1.1a15.29,15.29,0,0,0-1-2.44,4,4,0,0,1,1-.44S18.64,78.54,18.89,79.12Z"/><path class="cls-1" d="M15.57,76.87s-.8.6-.92,1.06a17.1,17.1,0,0,0-1-2.41,2.89,2.89,0,0,1,1-.43A13.51,13.51,0,0,1,15.57,76.87Z"/><path class="cls-1" d="M12.46,74.66s-.84.6-.94,1c0,.08-.19-.75-1-2.39-.06-.08.77-.35,1-.39A19.44,19.44,0,0,1,12.46,74.66Z"/><path class="cls-1" d="M9.19,72.34s-.84.57-1,1a15.41,15.41,0,0,0-1-2.4,4.61,4.61,0,0,1,1-.38S8.93,71.75,9.19,72.34Z"/><path class="cls-1" d="M19.14,123.68c.12,0,.26-.1.26-.15s-.07-.1-.14-.15a.14.14,0,0,1-.12.05h0a.11.11,0,0,1-.08-.05c-.08.05-.13.08-.13.15s.13.15.21.15Z"/><path class="cls-1" d="M19.26,124.22s0-.11,0-.11v-.43h-.11v.43s0,.11-.05.11a.12.12,0,0,0,.08,0C19.26,124.25,19.26,124.22,19.26,124.22Z"/><path class="cls-1" d="M19.14,123.19c.24,0,0-.24,0-.59s.19-.37.19-.37a0,0,0,0,0,.05.07c.11,0,0,.17,0,.17s0-.19.25-.19.24.32.24.32a.3.3,0,0,0-.24-.12c-.16,0-.22.19-.18.35s0,.58-.33.58h0c-.27,0-.27-.44-.27-.58s-.05-.35-.21-.35a.24.24,0,0,0-.21.12s-.06-.32.19-.32.23.19.29.19-.11-.19,0-.17,0-.07,0-.07.16,0,.16.37-.18.59,0,.59Z"/><path class="cls-1" d="M48.19,123.58c.12,0,.24,0,.22-.12a.12.12,0,0,0-.13-.14H48.1a.16.16,0,0,0-.17.14.39.39,0,0,0,.26.12Z"/><path class="cls-1" d="M48.41,124.2c-.12,0-.12-.15-.12-.15v-.47a.26.26,0,0,1-.14,0l0,.47s0,.15,0,.15h.27Z"/><path class="cls-1" d="M48.18,123.14c.2,0,0-.29-.08-.6s.16-.41.16-.41,0,.15,0,.1.09.17.09.17,0-.19.24-.19.2.33.2.33a.24.24,0,0,0-.2-.14c-.18,0-.23.2-.2.37s.08.55-.22.55h0c-.28,0-.34-.37-.31-.55s-.12-.37-.29-.37a.17.17,0,0,0-.18.14s-.06-.33.14-.33.23.19.3.19-.09-.17,0-.17,0-.1,0-.1.17.08.17.41-.17.6.08.6Z"/><path class="cls-1" d="M20.13,124.25c-.44,0-.48-.29-.48-.39a.29.29,0,0,1,.28-.28.22.22,0,0,1,.24.22c0,.06,0,.19-.17.16s-.1-.12-.1-.12a.08.08,0,0,1,.08-.08s0,0,0,0,0,0,0,0,0,0-.09,0a.12.12,0,0,0-.12.13.22.22,0,0,0,.21.23c.24,0,.38-.18.38-.51s-.38-.26-.38-.26a.34.34,0,0,1,.24-.13c.41,0,.3.54.3.54a1.25,1.25,0,0,0,0-.41c0-.32-.27-.25-.29-.46a.51.51,0,0,1,0-.16c.15,0,.15.07.22.11s0,0,0,0-.09-.17,0-.23a.15.15,0,0,0,0-.14.24.24,0,0,1,.26.2.41.41,0,0,1,.05-.2c.15.08.15.2.19.27a.28.28,0,0,1-.09.18s0,.15,0,.15,0-.09,0-.14a.24.24,0,0,0,.13-.19.49.49,0,0,0-.05-.17.42.42,0,0,1,.18-.4c.08.13,0,.2,0,.2s.05-.2.37-.2a.46.46,0,0,1,.51.44.28.28,0,0,1-.3.31c-.21,0-.21-.25-.21-.25a.17.17,0,0,1,.2-.18s.07.06.07.15,0,.09-.07.09h-.07a.09.09,0,0,0,.08,0c.14,0,.14-.16.14-.16a.29.29,0,0,0-.28-.24c-.31,0-.47.36-.6.77a3.67,3.67,0,0,1-.24.62.31.31,0,0,0-.16.15c-.19.21-.34.18-.34.18s.15,0,.34-.18a.32.32,0,0,1,.49-.12s0,.08-.13.1,0,0,0,0,.44-.15.4.36a.36.36,0,0,0-.31-.21c-.48,0-.37.26-1,.26"/><path class="cls-1" d="M25.46,124.22c.41,0,.41-.28.41-.38s0-.31-.27-.31-.19.2-.19.2.05.21.14.21.11-.12.11-.12,0-.09-.07-.09,0,0-.05,0h0s.05,0,.05,0a.14.14,0,0,1,.14.12.19.19,0,0,1-.19.21c-.22,0-.38-.19-.4-.5s.33-.25.33-.25a.27.27,0,0,0-.16-.14c-.47,0-.35.53-.35.53a.54.54,0,0,1,0-.37c0-.35.27-.25.27-.47v-.18a.28.28,0,0,0-.25.1s0,0,0,0,.09-.16,0-.23,0-.1,0-.1a.18.18,0,0,0-.25.17c0-.15-.06-.17-.06-.17a.32.32,0,0,0-.18.26c0,.07.1.17.1.17s0,.14,0,.14.06-.11,0-.12-.1-.12-.1-.19a.35.35,0,0,1,.07-.18c0-.35-.19-.42-.19-.42a.58.58,0,0,0-.06.22.37.37,0,0,0-.36-.22.45.45,0,0,0-.5.44.3.3,0,0,0,.3.33c.2,0,.2-.26.2-.26,0-.17-.18-.17-.18-.17s-.07.07-.07.1,0,.12.07.12a.08.08,0,0,0,.06,0h0a.08.08,0,0,1-.08.07c-.14,0-.12-.17-.12-.17a.24.24,0,0,1,.25-.22c.3,0,.53.34.61.76s.26.64.26.64a.33.33,0,0,1,.18.14.46.46,0,0,0,.32.2s-.13,0-.32-.2a.34.34,0,0,0-.52-.13,1,1,0,0,0,.15.11s0,0,0,0-.47-.12-.44.4a.44.44,0,0,1,.34-.24c.47,0,.37.26,1,.26"/><path class="cls-1" d="M22.82,124.34c-.24-.18-.18-.29-.18-.38s-.06-.07-.06-.07c0,.27-.26.2-.26.2s-.06-.15,0-.2.1-.13.1-.13a.25.25,0,0,1-.2.06.36.36,0,0,1,.2-.29c.16-.1,0-.16,0-.16-.2,0-.2.12-.3.21s-.27,0-.27,0,0-.17.07-.18.17-.05.17-.05-.24.05-.2-.16a.22.22,0,0,1,.2-.21c-.06,0-.15.24,0,.24s.19,0,.33,0,.33,0,.33,0h0s.2-.12.33,0,.2,0,.35,0,.06-.22,0-.24.22,0,.22.21-.22.16-.22.16,0,.05.15.05.09.18.09.18-.14.13-.24,0-.18-.21-.35-.21c0,0-.13.06,0,.16s.2.15.21.29a.25.25,0,0,1-.19-.06s0,0,.12.13-.05.1,0,.2-.21.07-.3-.2c0,0,0-.07,0,.07s0,.2-.13.38Z"/><path class="cls-1" d="M22.9,122.23a.13.13,0,0,0-.12-.1.12.12,0,0,0-.13.1h0a2.26,2.26,0,0,1,.1.44,1.48,1.48,0,0,1-.17.47.28.28,0,0,0,.21.18h0c.08,0,.2-.13.16-.18s-.1-.33-.11-.47a3.57,3.57,0,0,1,.06-.44Z"/><path class="cls-1" d="M26.45,123.68a.21.21,0,0,0,.2-.15c0-.07-.07-.1-.14-.15a.06.06,0,0,1-.06.05h0a.25.25,0,0,1-.15-.05c-.07.05-.1.08-.1.15s.1.15.25.15Z"/><path class="cls-1" d="M26.58,124.22c-.08,0-.08-.11-.08-.11v-.43h-.14v.43s0,.11-.07.11a.36.36,0,0,0,.15,0C26.56,124.25,26.58,124.22,26.58,124.22Z"/><path class="cls-1" d="M26.39,123.19c.22,0,0-.24,0-.59s.19-.37.19-.37,0,.07,0,.07,0,.17,0,.17,0-.19.25-.19.21.32.21.32,0-.12-.21-.12-.22.19-.22.35,0,.58-.23.58h0c-.32,0-.36-.44-.32-.58s-.07-.35-.25-.35a.17.17,0,0,0-.18.12s-.08-.32.17-.32.2.19.26.19-.07-.19,0-.17a.07.07,0,0,0,.07-.07s.16,0,.16.37-.19.59,0,.59Z"/><path class="cls-1" d="M27.39,124.25c-.42,0-.46-.29-.46-.39a.28.28,0,0,1,.27-.28.22.22,0,0,1,.22.22c0,.06-.06.19-.15.16a.12.12,0,0,1-.14-.12.11.11,0,0,1,.11-.08s0,0,0,0v0s0,0-.07,0-.11,0-.09.13.09.23.16.23c.25,0,.42-.18.39-.51s-.39-.26-.39-.26a.33.33,0,0,1,.25-.13c.39,0,.29.54.29.54s.1-.13,0-.41-.27-.25-.27-.46a.81.81,0,0,1,0-.16c.19,0,.19.07.21.11s0,0,0,0a.69.69,0,0,1,0-.23.11.11,0,0,0,0-.14.3.3,0,0,1,.33.2.23.23,0,0,1,0-.2.32.32,0,0,1,.16.27.33.33,0,0,1-.06.18s0,.15,0,.15,0-.09,0-.14.1-.09.1-.19a.44.44,0,0,0-.06-.17c0-.31.16-.4.16-.4a.54.54,0,0,1,.06.2s.07-.2.39-.2a.51.51,0,0,1,.51.44.28.28,0,0,1-.3.31c-.2,0-.2-.25-.2-.25,0-.2.14-.18.14-.18a.15.15,0,0,1,.14.15s-.08.09-.14.09h0s0,0,.08,0,.13-.16.13-.16a.31.31,0,0,0-.3-.24c-.29,0-.49.36-.59.77a1.53,1.53,0,0,1-.2.62s-.15,0-.17.15c-.18.21-.28.18-.28.18s.1,0,.28-.18a.31.31,0,0,1,.48-.12s0,.08-.11.1,0,0,0,0,.48-.15.48.36a.47.47,0,0,0-.37-.21c-.48,0-.34.26-1,.26"/><path class="cls-1" d="M32.7,124.22c.44,0,.45-.28.45-.38s-.08-.31-.27-.31-.26.2-.26.2.08.21.2.21.11-.12.11-.12a.12.12,0,0,0-.11-.09h0s0,0,0,0,0,0,.09,0,.07,0,.07.12-.06.21-.13.21c-.24,0-.42-.19-.42-.5s.34-.25.34-.25-.22-.14-.22-.14c-.42,0-.27.53-.27.53a.78.78,0,0,1,0-.37c0-.35.25-.25.28-.47a.76.76,0,0,0,0-.18c-.18,0-.16.06-.23.1s0,0,0,0,.09-.16,0-.23a.4.4,0,0,1,0-.1.21.21,0,0,0-.28.17c0-.15-.08-.17-.08-.17a.38.38,0,0,0-.11.26.44.44,0,0,0,.06.17s0,.14,0,.14,0-.11,0-.12-.11-.12-.11-.19a.51.51,0,0,1,0-.18c0-.35-.21-.42-.21-.42a.25.25,0,0,0,0,.22.38.38,0,0,0-.38-.22.44.44,0,0,0-.5.44.3.3,0,0,0,.33.33c.19,0,.19-.26.19-.26a.18.18,0,0,0-.17-.17c-.05,0-.09.07-.09.1s0,.12.09.12a.16.16,0,0,0,.09,0h0s0,.07-.11.07-.15-.17-.15-.17a.28.28,0,0,1,.29-.22c.31,0,.52.34.62.76a2.45,2.45,0,0,0,.25.64.41.41,0,0,1,.22.14.4.4,0,0,0,.29.2.4.4,0,0,1-.29-.2.37.37,0,0,0-.54-.13s0,0,.13.11,0,0,0,0-.47-.12-.43.4a.39.39,0,0,1,.33-.24c.48,0,.37.26,1,.26"/><path class="cls-1" d="M30.07,124.34a.53.53,0,0,1-.14-.38c0-.14-.08-.07-.08-.07a.21.21,0,0,1-.28.2c.09-.1,0-.15,0-.2s.09-.13.09-.13a.19.19,0,0,1-.17.06.36.36,0,0,1,.2-.29c.14-.1,0-.16,0-.16-.18,0-.18.12-.3.21s-.25,0-.25,0,0-.17,0-.18.16-.05.16-.05-.25.05-.2-.16a.21.21,0,0,1,.18-.21c-.05,0-.12.24,0,.24s.2,0,.32,0,.36,0,.36,0h0s.19-.12.32,0,.21,0,.34,0,0-.22,0-.24.21,0,.22.21-.2.16-.2.16,0,.05.16.05.09.18.09.18-.17.13-.27,0-.13-.21-.34-.21c0,0-.11.06.05.16s.17.15.17.29a.13.13,0,0,1-.13-.06s0,0,.12.13-.06.1,0,.2a.25.25,0,0,1-.31-.2s-.06-.07,0,.07a.42.42,0,0,1-.17.38Z"/><path class="cls-1" d="M30.13,122.23a.13.13,0,0,0-.12-.1c-.08,0-.15.06-.15.1h0a2.26,2.26,0,0,1,.1.44c0,.14-.1.33-.11.47s.1.18.2.18h0c.08,0,.19-.13.16-.18a2.79,2.79,0,0,1-.14-.47,3.57,3.57,0,0,1,.06-.44Z"/><path class="cls-1" d="M33.7,123.68c.08,0,.23-.1.23-.15s-.09-.1-.15-.15a.18.18,0,0,1-.14.05h0a.11.11,0,0,1-.08-.05c-.08.05-.11.08-.11.15s.11.15.25.15Z"/><path class="cls-1" d="M33.84,124.22c-.06,0-.06-.11-.06-.11l0-.43h-.13v.43s0,.11,0,.11a.25.25,0,0,0,.14,0A.33.33,0,0,0,33.84,124.22Z"/><path class="cls-1" d="M33.64,123.19c.2,0,0-.24,0-.59s.17-.37.17-.37,0,.07.06.07,0,.17,0,.17,0-.19.23-.19.23.32.23.32a.25.25,0,0,0-.23-.12c-.16,0-.18.19-.18.35s0,.58-.29.58h0c-.27,0-.28-.44-.27-.58s-.1-.35-.26-.35a.16.16,0,0,0-.18.12s0-.32.15-.32.23.19.29.19-.1-.19,0-.17.06-.07.06-.07.16,0,.16.37-.16.59,0,.59Z"/><path class="cls-1" d="M34.63,124.25a.39.39,0,0,1-.44-.39.27.27,0,0,1,.26-.28.23.23,0,0,1,.24.22c0,.06-.06.19-.14.16s-.15-.12-.15-.12a.12.12,0,0,1,.1-.08s0,0,0,0v0s0,0-.08,0a.12.12,0,0,0-.12.13c0,.16.12.23.2.23a.42.42,0,0,0,.36-.51.29.29,0,0,0-.36-.26.2.2,0,0,1,.18-.13c.46,0,.34.54.34.54a.54.54,0,0,0,0-.41c0-.32-.24-.25-.28-.46-.06,0,0-.16,0-.16.17,0,.17.07.23.11s0,0,0,0-.08-.17,0-.23a.56.56,0,0,0,0-.14.24.24,0,0,1,.26.2.33.33,0,0,1,.07-.2.28.28,0,0,1,.16.27.22.22,0,0,1-.06.18s0,.15-.05.15,0-.09,0-.14a.3.3,0,0,0,.11-.19.44.44,0,0,0-.06-.17.34.34,0,0,1,.18-.4.54.54,0,0,1,.06.2s.06-.2.37-.2a.45.45,0,0,1,.49.44c0,.19-.07.32-.25.31a.25.25,0,0,1-.22-.25c0-.2.15-.18.15-.18s.12.06.12.15a.12.12,0,0,1-.12.09h0a.16.16,0,0,0,.11,0c.13,0,.13-.16.13-.16a.32.32,0,0,0-.33-.24c-.3,0-.47.36-.57.77a1.87,1.87,0,0,1-.21.62.25.25,0,0,0-.16.15c-.13.21-.29.18-.29.18s.15,0,.29-.18a.33.33,0,0,1,.5-.12s0,.08-.12.1,0,0,0,0,.46-.15.46.36a.39.39,0,0,0-.34-.21c-.47,0-.34.26-1,.26"/><path class="cls-1" d="M40,124.22c.42,0,.42-.28.42-.38s-.07-.31-.31-.31a.21.21,0,0,0-.23.2c0,.11.07.21.21.21s.09-.12.09-.12,0-.09-.09-.09,0,0,0,0h0s0,0,0,0a.15.15,0,0,1,.14.12.2.2,0,0,1-.16.21c-.23,0-.4-.19-.46-.5s.37-.25.37-.25a.44.44,0,0,0-.22-.14c-.45,0-.28.53-.28.53a.74.74,0,0,1-.07-.37c0-.35.27-.25.27-.47s0-.18,0-.18c-.19,0-.19.06-.24.1s0,0,0,0,.07-.16,0-.23,0-.1,0-.1c-.22-.07-.28.17-.28.17s-.07-.17-.07-.17a.28.28,0,0,0-.15.26c0,.07.1.17.1.17s0,.14.05.14,0-.11,0-.12-.13-.12-.13-.19a.65.65,0,0,1,0-.18c0-.35-.21-.42-.21-.42a.32.32,0,0,0,0,.22s0-.22-.37-.22a.42.42,0,0,0-.47.44c0,.2.13.33.31.33s.18-.26.18-.26a.18.18,0,0,0-.18-.17c-.06,0-.08.07-.08.1s0,.12.09.12.07,0,.07,0h0s0,.07-.11.07-.11-.17-.11-.17a.23.23,0,0,1,.26-.22c.31,0,.53.34.65.76a2.34,2.34,0,0,0,.31.64.54.54,0,0,1,.16.14.44.44,0,0,0,.32.2.44.44,0,0,1-.32-.2.38.38,0,0,0-.55-.13l.18.11s0,0-.06,0-.44-.12-.38.4a.34.34,0,0,1,.31-.24c.47,0,.4.26,1.07.26"/><path class="cls-1" d="M37.34,124.34a.49.49,0,0,1-.16-.38c0-.14,0-.07,0-.07a.24.24,0,0,1-.3.2c.07-.1,0-.15,0-.2s.1-.13.1-.13a.2.2,0,0,1-.18.06.71.71,0,0,1,.18-.29c.14-.1,0-.16,0-.16s-.12.12-.26.21a.2.2,0,0,1-.26,0s0-.17,0-.18a.22.22,0,0,0,.15-.05.15.15,0,0,1-.2-.16.2.2,0,0,1,.17-.21c-.05,0-.1.24,0,.24s.18,0,.3,0,.37,0,.37,0h0s.16-.12.27,0,.25,0,.36,0S38,123,38,123a.26.26,0,0,1,.22.21c0,.21-.19.16-.19.16a.18.18,0,0,0,.14.05c.08,0,.09.18.09.18a.19.19,0,0,1-.26,0c-.11-.09-.11-.21-.31-.21,0,0-.13.06,0,.16s.21.15.22.29a.26.26,0,0,1-.2-.06s0,0,.15.13-.05.1,0,.2a.22.22,0,0,1-.29-.2s-.07-.07,0,.07a.48.48,0,0,1-.17.38Z"/><path class="cls-1" d="M37.34,122.23a.1.1,0,0,0-.11-.1c-.06,0-.14.06-.14.1h0a2.47,2.47,0,0,1,.09.44,1.68,1.68,0,0,1-.14.47s.14.18.23.18h0c.1,0,.16-.13.16-.18a2.18,2.18,0,0,1-.16-.47c0-.13,0-.44,0-.44Z"/><path class="cls-1" d="M41,123.68c.1,0,.21-.1.21-.15s-.07-.1-.13-.15a.13.13,0,0,1-.11.05h0a.16.16,0,0,1-.12-.05c0,.05-.12.08-.12.15a.29.29,0,0,0,.27.15Z"/><path class="cls-1" d="M41.1,124.22c-.06,0-.06-.11-.06-.11l0-.43h-.13l0,.43s0,.11-.08.11a.45.45,0,0,0,.16,0C41.08,124.25,41.1,124.22,41.1,124.22Z"/><path class="cls-1" d="M40.92,123.19c.22,0,0-.24-.05-.59s.14-.37.14-.37,0,.07.05.07,0,.17,0,.17,0-.19.26-.19.24.32.24.32a.26.26,0,0,0-.24-.12c-.19,0-.19.19-.19.35s.07.58-.24.58h0c-.31,0-.32-.44-.32-.58s-.09-.35-.22-.35a.33.33,0,0,0-.25.12s0-.32.18-.32.22.19.3.19-.1-.19,0-.17a.07.07,0,0,0,.07-.07s.16,0,.18.37-.18.59.05.59Z"/><path class="cls-1" d="M42,124.25c-.41,0-.48-.29-.48-.39a.24.24,0,0,1,.24-.28.23.23,0,0,1,.26.22c0,.06-.06.19-.14.16a.12.12,0,0,1-.14-.12s0-.08.05-.08,0,0,0,0,.06,0,.06,0a.21.21,0,0,0-.1,0s-.13,0-.09.13.09.23.19.23.37-.18.35-.51-.41-.26-.41-.26a.25.25,0,0,1,.22-.13c.45,0,.34.54.34.54a.68.68,0,0,0,0-.41c-.08-.32-.27-.25-.3-.46a1.32,1.32,0,0,1,0-.16c.16,0,.14.07.19.11s0,0,0,0-.08-.17,0-.23a.24.24,0,0,0,0-.14.22.22,0,0,1,.26.2.28.28,0,0,1,.11-.2.36.36,0,0,1,.13.27.29.29,0,0,1-.08.18s.08.15,0,.15,0-.09,0-.14a.27.27,0,0,0,.09-.19.75.75,0,0,0,0-.17c-.07-.31.13-.4.13-.4a.25.25,0,0,1,0,.2s.06-.2.38-.2a.5.5,0,0,1,.53.44c0,.19-.08.32-.29.31s-.19-.25-.19-.25c0-.2.12-.18.12-.18a.14.14,0,0,1,.13.15.12.12,0,0,1-.12.09h0s0,0,.09,0,.13-.16.13-.16a.29.29,0,0,0-.31-.24c-.25,0-.47.36-.56.77a1.92,1.92,0,0,1-.14.62.36.36,0,0,0-.19.15c-.14.21-.3.18-.3.18s.16,0,.3-.18a.32.32,0,0,1,.49-.12s0,.08-.13.1,0,0,.06,0,.42-.15.44.36a.41.41,0,0,0-.37-.21c-.43,0-.3.26-1,.26"/><path class="cls-1" d="M47.3,124.22a.33.33,0,0,0,.37-.38s-.08-.31-.26-.31-.27.2-.27.2.1.21.22.21.1-.12.1-.12-.05-.09-.1-.09,0,0,0,0h0a0,0,0,0,1,0,0,.14.14,0,0,1,.16.12.19.19,0,0,1-.16.21c-.24,0-.42-.19-.46-.5s.34-.25.34-.25a.34.34,0,0,0-.17-.14c-.47,0-.28.53-.28.53a.46.46,0,0,1-.06-.37c0-.35.21-.25.25-.47a.37.37,0,0,0-.08-.18c-.16,0-.14.06-.17.1s0,0,0,0,.07-.16,0-.23a.28.28,0,0,1,0-.1c-.22-.07-.25.17-.25.17s-.1-.17-.1-.17a.3.3,0,0,0-.1.26c0,.07.1.17.1.17s0,.14,0,.14,0-.11,0-.12-.09-.12-.1-.19a.51.51,0,0,1,0-.18c0-.35-.22-.42-.22-.42a.22.22,0,0,0,0,.22.39.39,0,0,0-.39-.22c-.41,0-.49.27-.49.44a.33.33,0,0,0,.32.33c.22,0,.2-.26.2-.26,0-.17-.2-.17-.2-.17s-.08.07-.08.1a.11.11,0,0,0,.11.12s.08,0,.08,0h0s0,.07-.11.07-.12-.17-.12-.17a.23.23,0,0,1,.26-.22c.3,0,.51.34.67.76a3.16,3.16,0,0,0,.28.64.55.55,0,0,1,.22.14c.15.2.28.2.28.2s-.13,0-.28-.2-.44-.24-.54-.13,0,0,.1.11h0c-.06,0-.43-.12-.39.4a.38.38,0,0,1,.33-.24c.46,0,.38.26,1.07.26"/><path class="cls-1" d="M44.66,124.34c-.25-.18-.2-.29-.25-.38s0-.07,0-.07a.21.21,0,0,1-.27.2c.05-.1-.07-.15,0-.2s.1-.13.1-.13a.26.26,0,0,1-.2.06.32.32,0,0,1,.2-.29c.14-.1,0-.16,0-.16-.17,0-.17.12-.26.21a.26.26,0,0,1-.3,0s0-.17.09-.18.14-.05.14-.05-.25.05-.25-.16.22-.21.22-.21-.1.24,0,.24.18,0,.33,0,.33,0,.33,0h0a.41.41,0,0,1,.34,0c.11,0,.17,0,.29,0s.08-.22,0-.24a.27.27,0,0,1,.24.21c0,.21-.2.16-.2.16s0,.05.17.05.11.18.11.18-.16.13-.29,0-.15-.21-.32-.21c0,0-.11.06.06.16a.37.37,0,0,1,.19.29.2.2,0,0,1-.17-.06s0,0,.13.13,0,.1,0,.2-.21.07-.28-.2c0,0,0-.07,0,.07a.54.54,0,0,1-.12.38Z"/><path class="cls-1" d="M44.57,122.23a.13.13,0,0,0-.11-.1.13.13,0,0,0-.13.1h0a1.83,1.83,0,0,1,.13.44c0,.14-.1.33-.1.47s.1.18.19.18h0c.11,0,.19-.13.17-.18a4.43,4.43,0,0,1-.17-.47c0-.13,0-.44,0-.44Z"/><path class="cls-1" d="M52.11,121.7c.11-.14.25-.27.22-.31s0,0-.14,0a.36.36,0,0,0-.09.17h0a.22.22,0,0,0-.13.06c-.1.08-.16.16-.16.21s.16,0,.3-.13Z"/><path class="cls-1" d="M52.31,122c-.09.09-.09-.06-.09-.06l-.07-.31a.29.29,0,0,1-.13.11l.08.35a.22.22,0,0,1-.08.18s0,0,.13-.15S52.31,122,52.31,122Z"/><path class="cls-1" d="M52.05,121.35c.26-.2,0-.17,0-.45a.6.6,0,0,1,.14-.41s0,.07,0,0,.08.07.08.07a.86.86,0,0,1,.27-.38c.27-.24.23,0,.23,0s-.07,0-.23.15a.53.53,0,0,0-.21.46c.06.07.11.38-.23.69h0c-.36.31-.44,0-.43-.13s-.08-.21-.24-.08a.72.72,0,0,0-.22.31s-.13-.19.15-.44.27-.05.3-.1-.11-.06.06-.18,0-.09,0-.09.23-.12.26.09-.19.66,0,.45Z"/><path class="cls-1" d="M53.24,121.21c-.47.41-.54.22-.57.18a.77.77,0,0,1,.29-.52c.27-.24.29-.06.29-.06a.45.45,0,0,1-.17.27c-.12.13-.12.06-.12.06s0-.1.08-.14a0,0,0,0,1,0,0h0c0-.06,0,0-.07,0s-.15.13-.11.21.14.06.2,0a1,1,0,0,0,.42-.74c-.08-.22-.47.19-.47.19a3.77,3.77,0,0,1,.2-.34c.48-.39.44.12.44.12a.74.74,0,0,0,0-.31c-.12-.19-.34.08-.36,0a.1.1,0,0,1,0-.15c.19-.19.19-.12.21-.15s0-.07,0-.07-.1,0,0-.11,0-.12,0-.12c.23-.25.3-.13.3-.13a.49.49,0,0,1,.08-.2c.13,0,.15,0,.2.06a.63.63,0,0,1-.07.19s0,.1,0,.11,0,0,0-.06a.93.93,0,0,0,.08-.24c0-.06-.07-.06-.07-.06a.53.53,0,0,1,.1-.47c.12,0,.12.13.12.13a1,1,0,0,1,.36-.52c.39-.35.57-.25.57-.13a.54.54,0,0,1-.29.48c-.19.2-.24,0-.24,0s.16-.26.16-.26.12,0,.12,0,0,.11-.07.16l-.06,0h0s0,0,.09,0,.11-.23.11-.23-.06-.1-.3.09a1.84,1.84,0,0,0-.57,1.12,3.79,3.79,0,0,1-.19.65,1.63,1.63,0,0,0-.19.28,1.11,1.11,0,0,1-.23.42s.09-.14.23-.42a1,1,0,0,1,.58-.55,1.21,1.21,0,0,1-.12.17s0,0,0,0,.47-.54.5-.16a.8.8,0,0,0-.4.16c-.51.46-.36.53-1.09,1.18"/><path class="cls-1" d="M58.81,116.37c.37-.31.37-.56.35-.6s-.1-.16-.3,0-.21.32-.21.32.1,0,.21,0a.48.48,0,0,0,.07-.17s0,0-.07,0,0,0,0,0h0l0-.08s.11-.07.14,0a.32.32,0,0,1-.14.24c-.21.22-.42.25-.49,0s.34-.44.34-.44-.24,0-.24,0c-.43.34-.19.59-.19.59s-.1,0-.1-.2.19-.39.19-.53a.12.12,0,0,0,0-.09c-.17.12-.13.18-.19.23s0,0,0,0,.06-.17,0-.17,0,0,0,0a.4.4,0,0,0-.27.33c0-.07,0,0,0,0s-.15.26-.12.29.12,0,.12,0v.06a0,0,0,0,0,0-.06s-.12,0-.12,0,0-.16,0-.16c0-.21-.23-.09-.23-.09s0,.16,0,.16-.14-.07-.44.17-.44.6-.39.73.11.15.29,0,.21-.32.21-.32c0-.16-.21,0-.21,0s-.09.08-.09.13.09,0,.11,0,.06-.08.08-.08h0a.24.24,0,0,1-.1.13c-.12.14-.14,0-.14,0s0-.16.24-.37a.51.51,0,0,1,.76,0,.61.61,0,0,0,.27.23.71.71,0,0,1,.24-.08.52.52,0,0,0,.28-.12.52.52,0,0,1-.28.12.57.57,0,0,0-.51.36l.08-.06s.06,0,0,.06-.45.28-.33.58a.76.76,0,0,1,.33-.42c.44-.43.38-.12,1-.7"/><path class="cls-1" d="M56.17,118.72c-.25.07-.25,0-.25-.11s0,0,0,0a.66.66,0,0,1-.28.39c0-.11-.07-.07,0-.12s.08-.18.08-.18a.51.51,0,0,1-.19.19c0-.15,0-.15.19-.39s0-.14,0-.14a1.21,1.21,0,0,0-.31.46.6.6,0,0,1-.25.2.32.32,0,0,1,.07-.2.72.72,0,0,0,.13-.16s-.2.23-.27.08.24-.35.24-.35-.1.27,0,.15a4.45,4.45,0,0,1,.32-.31A.79.79,0,0,1,56,118h0s.15-.29.32-.36.2-.1.33-.25,0-.19,0-.16.21-.18.23,0-.16.28-.16.28l.14-.12a.06.06,0,0,1,.1,0s-.1.24-.24.3a.44.44,0,0,0-.36.11s-.1.12.07.06.19-.06.24,0a.34.34,0,0,1-.21.12s0,0,.13,0,0,.08,0,.08-.23.27-.31.14-.05,0,0,.09,0,.07-.1.4Z"/><path class="cls-1" d="M56,117.22s-.08,0-.16,0-.13.16-.13.19h0s.09.16.13.25-.05.35-.05.4.06.08.19,0h0c.08-.07.18-.24.15-.31s-.15-.09-.17-.18,0-.35,0-.35Z"/><path class="cls-1" d="M59.62,115.19c.17-.11.21-.21.21-.25s0,0-.12,0a.21.21,0,0,1-.1.12h0a.28.28,0,0,1-.13,0c0,.08-.1.15-.06.18s.11,0,.2-.1Z"/><path class="cls-1" d="M59.83,115.45c0,.08,0,0,0,0l-.09-.26-.12.07.09.27a.12.12,0,0,1-.06.14.38.38,0,0,0,.18-.08A.35.35,0,0,0,59.83,115.45Z"/><path class="cls-1" d="M59.55,114.92c.24-.18,0-.18-.07-.37a.37.37,0,0,1,.07-.34s0,.07.07,0,.08,0,.08,0,0-.13.22-.33.2,0,.2,0,0,0-.19.1a.41.41,0,0,0-.14.4.55.55,0,0,1-.18.56h0c-.27.23-.37,0-.37-.12s-.1-.2-.24-.06a.5.5,0,0,0-.19.23s-.1-.17.12-.37.25,0,.28,0-.1-.06,0-.15a.11.11,0,0,0,0-.1.14.14,0,0,1,.22.1c0,.19-.13.51.07.37Z"/><path class="cls-1" d="M60.58,114.84c-.35.3-.46.16-.46.1a.53.53,0,0,1,.23-.39c.21-.17.23,0,.23,0a.31.31,0,0,1-.12.24c-.11.1-.11,0-.11,0a.18.18,0,0,1,0-.1h0l0,0s-.06,0-.08,0-.1.1-.1.2.15,0,.21,0a.62.62,0,0,0,.26-.59c-.06-.21-.35.14-.35.14a.63.63,0,0,1,.17-.27c.39-.32.39.1.39.1a.3.3,0,0,0-.06-.26c-.14-.16-.25,0-.33-.08a.49.49,0,0,1,0-.11c.13-.08.13,0,.19-.08s0-.05,0-.05-.08,0-.06-.09,0-.12,0-.12c.21-.21.31-.11.31-.11s0-.12,0-.12.16,0,.19,0-.06.16-.06.16.06.11,0,.11,0,0,0-.06.09-.14.06-.21l-.08,0a.51.51,0,0,1,.11-.41c.07,0,.07.12.07.12a.7.7,0,0,1,.28-.43c.34-.26.46-.18.52-.06s0,.26-.2.37-.23,0-.23,0,.13-.2.13-.2.07-.06.1,0,0,.09-.07.1,0,.05,0,.05h0s0,0,.08-.05a.21.21,0,0,0,.12-.16s-.12-.11-.32.09a1.4,1.4,0,0,0-.43.89,1.62,1.62,0,0,1-.1.5s-.07.11-.13.23a.68.68,0,0,1-.26.35,1.26,1.26,0,0,0,.26-.35c.11-.23.31-.45.46-.46s0,0-.13.12,0,.08,0,0,.36-.39.45-.08c0,0-.13,0-.35.12-.41.36-.25.42-.84,1"/><path class="cls-1" d="M65.18,111c.28-.27.26-.46.26-.49s-.1-.13-.26,0-.16.28-.16.28.06.06.16,0,.1-.12.1-.12,0,0-.1,0l0,0h0l0,0s.1-.06.12,0a.29.29,0,0,1-.09.25c-.16.13-.34.15-.41,0s.25-.38.25-.38a.22.22,0,0,0-.18,0c-.38.31-.18.49-.18.49s-.07,0-.07-.15.15-.34.15-.43-.08-.1-.08-.1-.11.12-.14.19,0,0,0,0,0-.09-.06-.09,0-.09,0-.09a.44.44,0,0,0-.18.31c0-.09-.08-.06-.08-.06a.23.23,0,0,0-.07.22.11.11,0,0,0,.09.06s0,.07,0,.07,0-.07,0-.07a.13.13,0,0,1-.11-.06s0-.12,0-.12c-.06-.17-.26-.1-.26-.1s0,.19,0,.19-.1-.09-.35.1-.37.47-.31.58.17.12.3,0a.33.33,0,0,0,.12-.3c0-.08-.14,0-.14,0a.12.12,0,0,0-.08.15s0,0,.1,0,0-.06,0-.06h0l-.07.1c-.09.11-.11,0-.11,0a.4.4,0,0,1,.14-.3.47.47,0,0,1,.65,0,1.52,1.52,0,0,0,.31.15,1,1,0,0,1,.2,0,.53.53,0,0,0,.25-.11.53.53,0,0,1-.25.11.52.52,0,0,0-.47.3l.14,0h0c-.06,0-.41.23-.31.49a.87.87,0,0,1,.25-.34c.41-.33.37-.11.9-.53"/><path class="cls-1" d="M63,112.85c-.19.06-.19,0-.19-.12s-.08,0-.08,0a.52.52,0,0,1-.18.35c0-.09-.07-.07,0-.13s.05-.13.05-.13-.14.13-.14.13,0-.1.12-.27,0-.12,0-.12c-.16.12-.13.2-.2.35a.69.69,0,0,1-.26.17s0-.13.07-.17a.36.36,0,0,0,.09-.14s-.19.18-.21.08.16-.29.16-.29-.08.21,0,.12.15-.12.28-.26a.85.85,0,0,1,.29-.18h0a1.65,1.65,0,0,1,.28-.29,1.15,1.15,0,0,0,.31-.18c.08-.11,0-.16,0-.14s.14-.14.16-.06-.12.28-.12.28l.11-.08c.06,0,.12,0,.12,0a.67.67,0,0,1-.22.16c-.11,0-.15,0-.28.12s-.12.1,0,.06.21-.06.25,0-.1.09-.15.09,0,0,.11,0-.06.11,0,.11-.19.2-.32.11-.05,0,0,.06.07.1-.09.32Z"/><path class="cls-1" d="M62.72,111.61s0,0-.09,0a.19.19,0,0,0-.09.14h0s.13.12.13.21a1.52,1.52,0,0,1,0,.32c0,.1.07.06.18,0h0c.06-.08.15-.2.13-.22s-.16-.1-.18-.19-.06-.28-.06-.28Z"/><path class="cls-1" d="M65.88,110.09c0-.07.1-.17.07-.21s-.06,0-.07,0,0,0-.07.08h0a.31.31,0,0,1-.12,0,.73.73,0,0,0-.07.16s.11,0,.19-.09Z"/><path class="cls-1" d="M66,110.31c-.09,0-.09,0-.09,0l-.07-.22c0,.05-.07.05-.07.05l.07.22a.47.47,0,0,1,0,.12l.07-.06C66,110.34,66,110.31,66,110.31Z"/><path class="cls-1" d="M65.73,109.83c.16-.1,0-.1-.08-.26a.27.27,0,0,1,0-.3s0,.07,0,0,.08.09.08.09,0-.13.14-.26.22,0,.22,0,0,0-.19.07a.36.36,0,0,0-.09.3.36.36,0,0,1-.12.48h0c-.23.19-.31,0-.33-.11s-.1-.17-.21-.07-.15.18-.15.18-.12-.15.08-.28.18,0,.22,0-.08,0,0-.12,0-.06,0-.06a.17.17,0,0,1,.21.1c.07.16-.05.41.11.26Z"/><path class="cls-1" d="M15.52,121.88c-.16-.1-.29-.24-.29-.3s.11,0,.19,0,0,0,.1.1h0c.09.11.16.11.16.11a.28.28,0,0,1,.09.2c0,.07-.16,0-.25-.15Z"/><path class="cls-1" d="M15.28,122.23c.09,0,.09,0,.09,0l.05-.35.14.09,0,.35a.38.38,0,0,0,.05.18.47.47,0,0,1-.15-.08A.85.85,0,0,0,15.28,122.23Z"/><path class="cls-1" d="M15.56,121.56c-.22-.21,0-.21,0-.42a.83.83,0,0,0-.13-.45s0,.08-.09,0-.05.07-.05.07,0-.14-.29-.36-.21.06-.21.06,0-.06.21.09.29.36.18.48a.72.72,0,0,0,.29.68h0c.34.31.39,0,.39-.11s.1-.22.25,0a.59.59,0,0,1,.26.27s.1-.21-.19-.44-.22-.08-.32-.12.12-.06-.05-.13,0-.12,0-.12-.15-.15-.22.12.18.61,0,.42Z"/><path class="cls-1" d="M14.37,121.43c.47.4.52.21.52.15a.69.69,0,0,0-.26-.5c-.26-.23-.29-.06-.29-.06a.69.69,0,0,0,.18.29c.13.12.13,0,.13,0a.23.23,0,0,0-.07-.14.07.07,0,0,0-.06,0s0,0,0,0,0,0,.06,0a.31.31,0,0,1,.14.24c0,.09-.14,0-.23,0a.86.86,0,0,1-.37-.76c0-.19.43.2.43.2a1.16,1.16,0,0,0-.21-.29c-.51-.44-.42.09-.42.09a.57.57,0,0,1,0-.34c.11-.16.32.12.36-.05s0-.14,0-.14c-.18-.16-.18-.12-.22-.13s0,0,0,0a.1.1,0,0,0,0-.15.3.3,0,0,1,0-.15c-.25-.22-.32-.12-.32-.12s0-.17,0-.17-.16,0-.21.07a.9.9,0,0,0,.08.19s0,.08,0,.08,0,0,0,0a.53.53,0,0,1-.12-.22.38.38,0,0,1,.08-.09.58.58,0,0,0-.12-.45c-.14,0-.09.07-.09.07a1.12,1.12,0,0,0-.34-.46c-.42-.32-.59-.26-.61-.15a.53.53,0,0,0,.25.48c.24.18.25,0,.25,0s-.13-.31-.13-.31-.12,0-.13,0,0,.16.06.18.07,0,.07.07h0s0,0-.09-.07-.09-.23-.09-.23.05-.13.3.07a1.86,1.86,0,0,1,.55,1.13,6.39,6.39,0,0,0,.19.64,1.27,1.27,0,0,1,.18.3,2.5,2.5,0,0,0,.3.41,1.5,1.5,0,0,1-.3-.41,1.09,1.09,0,0,0-.55-.6s0,.07.12.19.06,0,0,0-.46-.52-.49-.15c0,0,.15,0,.4.16.5.47.34.55,1.09,1.21"/><path class="cls-1" d="M8.81,116.59c-.39-.33-.39-.57-.36-.61s.09-.17.32,0a.6.6,0,0,1,.2.36c0,.05-.11,0-.2,0s-.1-.15-.1-.15.06,0,.1,0l0,0s0,0,0,0,0,0-.07-.08-.09-.09-.13,0a.41.41,0,0,0,.13.25c.23.22.44.26.48,0s-.33-.45-.33-.45.24.08.24.08c.41.37.2.61.2.61s.09,0,.09-.24-.2-.37-.2-.54a.12.12,0,0,1,0-.08c.18.17.17.17.2.24s0,0,0,0,0-.15,0-.15,0-.07,0-.07a.65.65,0,0,1,.26.35c0-.06.07-.06.07-.06a.51.51,0,0,1,.1.29.13.13,0,0,1-.1.05s0,.11,0,.07,0-.07,0-.07.1,0,.13-.05,0-.12,0-.12c.08-.24.26-.17.26-.17.06.17,0,.2,0,.2s.1-.06.4.17a1.12,1.12,0,0,1,.45.76c-.05.08-.16.11-.39,0a.38.38,0,0,1-.13-.37c0-.13.21,0,.21,0s.1.11.05.16,0,.05-.13,0v0h0s0,0,.09.11.12,0,.12,0,0-.18-.26-.37a.42.42,0,0,0-.69,0,.78.78,0,0,1-.35.16s-.12-.09-.16,0a.53.53,0,0,1-.34-.12.61.61,0,0,0,.34.12c.14-.05.41.19.51.37,0,0,0,.06-.12-.06s-.05,0,0,0,.46.28.36.59a1.2,1.2,0,0,0-.31-.44c-.46-.41-.42-.07-1.06-.67"/><path class="cls-1" d="M11.47,118.93c.18,0,.18,0,.19-.11s.08,0,.08,0c0,.24.27.39.27.39s.07-.08,0-.13-.06-.19-.06-.19a.4.4,0,0,0,.15.19c0-.13,0-.15-.14-.36s0-.16,0-.16a2.1,2.1,0,0,1,.28.46.45.45,0,0,0,.29.19.32.32,0,0,0-.06-.19c-.11-.09-.12-.14-.12-.14s.2.2.24.07-.23-.36-.23-.36.11.29,0,.15a1,1,0,0,1-.32-.35,2.51,2.51,0,0,0-.41-.21h0a2.79,2.79,0,0,0-.28-.36c-.18-.08-.25-.08-.37-.22s-.06-.22,0-.19-.19-.19-.27-.06.23.34.23.34l-.15-.12c-.09,0-.14.06-.14.06a.87.87,0,0,0,.29.23c.11.06.16,0,.36.15,0,0,.09.13-.09,0s-.19,0-.23,0a.57.57,0,0,0,.16.09s.05.08-.12,0,.08.14,0,.14.2.22.34.13,0-.06,0,0,0,.16.14.43Z"/><path class="cls-1" d="M11.59,117.41s.07,0,.15,0a.43.43,0,0,1,.13.18h0s-.13.17-.13.23a1.27,1.27,0,0,0,.06.41c0,.09-.14.07-.21,0h0c-.12-.09-.18-.24-.15-.27s.15-.13.17-.21a3,3,0,0,0,0-.37Z"/><path class="cls-1" d="M8,115.44c-.13-.1-.23-.25-.22-.31s0,0,.12.06a.23.23,0,0,0,.12.07H8l.07.1c.08.08.11.12.11.15s-.11,0-.2-.07Z"/><path class="cls-1" d="M7.75,115.67c.08.09.12-.06.12-.06l.06-.22c.07.06.09.06.09.06l-.08.31s0,0,.06.14l-.13-.1Z"/><path class="cls-1" d="M8,115.11c-.17-.17,0-.17.08-.37A.4.4,0,0,0,8,114.4s0,.07,0,0-.07.06-.07.06,0-.12-.23-.31-.21.07-.21.07.06,0,.21.07a.33.33,0,0,1,.13.41s-.08.31.19.55H8c.28.25.33,0,.33-.12s.1-.2.26-.08a.72.72,0,0,1,.18.28.34.34,0,0,0-.12-.4c-.25-.14-.25,0-.26,0s.09-.08,0-.18,0-.07,0-.07-.18-.12-.23.07.11.55-.08.37Z"/><path class="cls-1" d="M7,115.06c.36.33.48.13.48.08a.53.53,0,0,0-.24-.4c-.22-.14-.24,0-.24,0a.39.39,0,0,0,.12.23c.12.1.12,0,.12,0s0,0-.06-.07,0,0,0,0h0s0,0,.07,0,.09.1.08.18-.12,0-.2,0a.66.66,0,0,1-.26-.59c0-.17.34.12.34.12A.47.47,0,0,0,7,114.3c-.37-.35-.35.08-.35.08s-.07-.1,0-.26.29.06.31-.06a.34.34,0,0,0,0-.11c-.16-.13-.16-.11-.2-.12s0,0,0,0,.1-.06,0-.11a.09.09,0,0,1,0-.11c-.21-.19-.28-.09-.28-.09a.89.89,0,0,0,0-.17c-.14,0-.19,0-.19.07s0,.17,0,.17,0,.07,0,.11,0,0,0-.09-.09-.15-.05-.19a.08.08,0,0,1,.08-.08c.07-.17-.12-.38-.12-.38s-.06.1-.06.1a.83.83,0,0,0-.28-.42c-.33-.23-.47-.18-.51-.07s0,.26.2.39.2,0,.2,0-.13-.23-.13-.23-.07,0-.07,0,0,.1,0,.14,0,0,0,0h0s0,0-.06,0-.09-.18-.09-.18,0-.12.28,0a1.28,1.28,0,0,1,.4.92,1.71,1.71,0,0,0,.11.51,1,1,0,0,1,.14.22,1,1,0,0,0,.27.36,1,1,0,0,1-.27-.36.85.85,0,0,0-.46-.46s0,0,.08.14h0c0-.06-.37-.37-.45-.11,0,0,.13,0,.35.13.44.33.25.45.91,1"/><path class="cls-1" d="M2.45,111.22c-.33-.25-.26-.47-.26-.47s.05-.13.26,0,.17.27.17.27-.11,0-.2,0-.08-.13-.08-.13.05,0,.11,0v0h0a.07.07,0,0,0,0,0s-.13-.09-.14,0,0,.17.1.21.36.16.4,0-.23-.33-.23-.33.19,0,.19,0c.36.27.13.47.13.47s.1,0,.1-.18-.15-.29-.15-.42a.21.21,0,0,0,0-.09c.15.13.1.18.15.22s0,0,0,0,0-.15,0-.15.06-.07.06-.07a.31.31,0,0,1,.17.31c0-.09.1-.09.1-.09s.08.22.05.27H3.4s0,.11,0,.08,0-.08,0-.08.08,0,.08,0a.18.18,0,0,0,0-.13.2.2,0,0,1,.23-.14c0,.14,0,.16,0,.16s.09,0,.35.13.37.47.35.59-.19.13-.33-.06-.13-.23-.13-.23.17,0,.17,0,.09.09.09.13a.07.07,0,0,1-.11,0l0,0h0a.24.24,0,0,0,.06.12c.1.06.1,0,.1,0s0-.12-.16-.32a.46.46,0,0,0-.63,0,.93.93,0,0,1-.33.18.37.37,0,0,0-.15-.06.44.44,0,0,1-.28-.1.39.39,0,0,0,.28.1.6.6,0,0,1,.45.27s0,0-.14,0l0,0s.38.24.24.49a.6.6,0,0,0-.22-.34c-.38-.33-.35-.1-.87-.54"/><path class="cls-1" d="M4.61,113.05c.14.09.17,0,.2-.1s0,0,0,0a.45.45,0,0,0,.21.33c-.06-.1.07,0,.05-.1S5,113,5,113a.39.39,0,0,0,.13.15c0-.1,0-.13-.1-.27s0-.18,0-.18a3.87,3.87,0,0,1,.24.41.43.43,0,0,0,.24.14.12.12,0,0,0-.06-.14.72.72,0,0,0-.1-.15s.19.19.19.06-.15-.28-.15-.28.06.22,0,.14-.15-.18-.24-.28l-.33-.18h0a1.17,1.17,0,0,0-.23-.29c-.13-.08-.18-.08-.34-.18s0-.16,0-.13-.17-.12-.21,0,.15.21.15.21a.39.39,0,0,1-.13,0c-.07,0-.1,0-.1,0a.72.72,0,0,0,.23.19.54.54,0,0,1,.29.08s.08.1-.07.06-.16,0-.21,0a.26.26,0,0,0,.16.07s0,.06-.11,0,0,.09,0,.12.21.14.28.09.06-.05,0,0,0,.13.11.33Z"/><path class="cls-1" d="M4.86,111.82s0,0,.13,0,.07.1.07.13h0s-.13.12-.13.22.05.25.05.33-.12,0-.23,0h0c-.06-.09-.14-.21-.09-.26s.15-.09.19-.15,0-.28,0-.28Z"/><path class="cls-1" d="M1.76,110.31c-.06-.08-.14-.19-.12-.22s.06,0,.12,0,0,0,.07.06h0a.17.17,0,0,0,.09.06l.07.11c0,.05-.12,0-.23,0Z"/><path class="cls-1" d="M1.59,110.49c0,.07,0,0,0,0l.12-.2s.07,0,.07,0l-.07.22s0,.06,0,.1l-.09,0C1.59,110.53,1.59,110.49,1.59,110.49Z"/><path class="cls-1" d="M1.87,110.07c-.15-.12,0-.12.09-.3a.27.27,0,0,0,0-.3s0,.06,0,0-.06.09-.06.09,0-.15-.17-.27-.19.06-.19.06.05,0,.17.06a.24.24,0,0,1,.1.31c-.05,0-.1.25.11.45h0a.21.21,0,0,0,.36-.09c0-.11.08-.17.17-.07s.15.19.15.19.15-.14-.06-.29-.21,0-.23-.09.09,0,0-.06a.07.07,0,0,1,0-.1.19.19,0,0,0-.23.11c0,.17.06.43-.09.29Z"/><polygon class="cls-1" points="34.45 5.76 35.78 5.48 35.53 4.12 34.28 3.02 33.19 3.66 32.89 4.24 34.45 5.76"/><path class="cls-1" d="M48.75,33.71l-6,1.78h-18l-6.2-1.78-.18-.06L6.44,41.86l-.05.1a1.87,1.87,0,0,0-.13.58l0,0c-.34.06-.78.21-.87.64,0,0,0,.1,0,.16a1.37,1.37,0,0,0,.56.95.85.85,0,0,0-.63.53c0,.1,0,.17,0,.32a1.74,1.74,0,0,0,.39,1,1.55,1.55,0,0,0-.46.62v.17a1.42,1.42,0,0,0,.53,1v0a1.12,1.12,0,0,0-.61.86v0c0,.45.38.87,1.2,1.42s13.36,7.34,13.93,7.63l0,.07h27.4l13.85-7.67a1.66,1.66,0,0,0,.82-1.14V49a1.62,1.62,0,0,0-.45-1,1.92,1.92,0,0,0,.54-1.2v-.17A1.36,1.36,0,0,0,62,46a1.85,1.85,0,0,0,.38-1.09v-.22a1.43,1.43,0,0,0-.75-.94,1.37,1.37,0,0,0,.55-.92.47.47,0,0,0,0-.16c-.11-.57-.77-.8-1-.89l-12-8-.19-.12Zm-30.29.82c.36.12,6.15,1.75,6.15,1.75H42.88c.1,0,5-1.47,5.92-1.76l12,7.95c.47.22.55.32.55.34a1.33,1.33,0,0,1-.39.4c-.2.16-.38.31-.38.58v.05l.07.22.2.16c.31.1.66.31.71.58a.1.1,0,0,1,0,.09,1.6,1.6,0,0,1-.49.9l-.52.41.66.24c.13.08.43.18.43.3v0a1.6,1.6,0,0,1-.58.88l-.35.3.38.31c.18.19.43.44.43.7v0c0,.27-.4.49-.4.49s-12.69,7-13.66,7.55h-27C16,54.66,7.44,50,6.8,49.53S6,48.81,6,48.78s.25-.19.25-.19A1,1,0,0,0,6.66,48v0a.6.6,0,0,0-.27-.47c-.27-.26-.32-.43-.32-.56h0c0-.12.22-.26.28-.29l.54-.2L6.55,46a1.83,1.83,0,0,1-.45-.81v0A.74.74,0,0,1,6.48,45c.24-.06.53-.14.6-.43v-.1A.59.59,0,0,0,6.85,44c-.52-.37-.59-.57-.59-.6a3.81,3.81,0,0,0,.43-.19c.18,0,.36,0,.46-.22l.1-.21-.14-.2s0,0,0-.06,0-.1,0-.14C7.34,42.26,18.19,34.74,18.46,34.53Z"/><path class="cls-1" d="M47.35,48.06l-27,0h0L7,42.44l-.34.78,13.56,5.59c.14,0,27.24,0,27.24,0h.11l14-6.22-.35-.74S47.5,48,47.35,48.06Z"/><path class="cls-1" d="M47.71,49.81H19.84C19.68,49.75,6.75,44,6.75,44l-.36.71,13.26,6H47.93L61.21,44.2l-.36-.75S47.91,49.75,47.71,49.81Z"/><path class="cls-1" d="M47.78,52.05H19.93c-.13-.07-13.08-6-13.08-6l-.37.69,13.26,6.11H48l13.56-6.41-.35-.73Z"/><path class="cls-1" d="M47.88,54.41h-28c-.18,0-13.55-6.64-13.55-6.64l-.38.71,13.72,6.75H48l13.52-6.89-.38-.71S48,54.31,47.88,54.41Z"/><path class="cls-1" d="M19.93,48.29A6.86,6.86,0,0,1,19.6,50a2,2,0,0,0-.44,1.32,2.33,2.33,0,0,0,.31,1.17.54.54,0,0,0-.07.09,4.29,4.29,0,0,0-.26,1.3,1.74,1.74,0,0,0,.33,1,1.07,1.07,0,0,1-.07.15,3.93,3.93,0,0,0-.24,1.13,2.48,2.48,0,0,0,.58,1.55l.66-.55a1.5,1.5,0,0,1-.38-1,3.56,3.56,0,0,1,.18-.86,1,1,0,0,0,.08-.4.45.45,0,0,0-.08-.25,1.1,1.1,0,0,1-.22-.73,3.85,3.85,0,0,1,.22-1,.82.82,0,0,0,.08-.34.38.38,0,0,0-.08-.24,2.29,2.29,0,0,1-.18-.93,1.16,1.16,0,0,1,.24-.83,5.75,5.75,0,0,0,.44-2S25.08,36,25.08,36l-.78-.26Z"/><path class="cls-1" d="M42.66,36.05,47,48.59a6.52,6.52,0,0,0,.47,1.89,2,2,0,0,1,0,1.81c-.13.16,0,.34,0,.57.12.39.38,1.25,0,1.76-.14.19-.06.43,0,.66a1.84,1.84,0,0,1-.18,1.86l.57.57a2.3,2.3,0,0,0,.59-1.58A3.12,3.12,0,0,0,48.31,55l0-.14a2,2,0,0,0,.31-1,3.83,3.83,0,0,0-.28-1.3.25.25,0,0,1,0-.09,2.76,2.76,0,0,0,.24-1.19A1.88,1.88,0,0,0,48.14,50a7.06,7.06,0,0,1-.29-1.62c0-.07-4.43-12.62-4.43-12.62Z"/><path class="cls-1" d="M25.05,19.33a2.27,2.27,0,0,0-1,1.35,3.18,3.18,0,0,0-.05.57,3.21,3.21,0,0,0,.35,1.21v.06a2.56,2.56,0,0,0-.45,1.41,3,3,0,0,0,.5,1.54,2.94,2.94,0,0,0-.5,1.66,2.49,2.49,0,0,0,.39,1.17,3,3,0,0,0-.39,1.39,2.38,2.38,0,0,0,.36,1.2,2.64,2.64,0,0,0-.38,1.26,2.27,2.27,0,0,0,.38,1.12v0a2.52,2.52,0,0,0-.36,1.22,2,2,0,0,0,.52,1.32l.62-.5A1.41,1.41,0,0,1,25,33.69c.12-.18.25-.41.09-.62a1.38,1.38,0,0,1,0-1.87l.23-.27-.23-.26a1.93,1.93,0,0,1,0-2.09l.13-.22-.13-.2a2.29,2.29,0,0,1,.13-2.5l.14-.19-.14-.23c-.84-1.25-.39-1.93-.16-2.28s.27-.44.11-.7a1.86,1.86,0,0,1-.29-1.38,2,2,0,0,1,.75-1l.18-.09,0-.2c.33-5.4,5.34-9.89,5.38-10l-.53-.58C30.46,9.26,25.47,13.73,25.05,19.33Z"/><path class="cls-1" d="M36.74,9.71c.09,0,5.09,4.52,5.36,9.9l0,.2.19.09a2.3,2.3,0,0,1,.75,1,1.59,1.59,0,0,1-.31,1.32.71.71,0,0,0,.13.7,1.85,1.85,0,0,1-.14,2.31l-.13.2.13.27a2.29,2.29,0,0,1,.12,2.44l-.12.18.1.23a1.85,1.85,0,0,1,0,2.08l-.2.27.2.26a1.41,1.41,0,0,1,0,1.88.59.59,0,0,0,.06.63,1.32,1.32,0,0,1-.06,1.63l.63.54a2.2,2.2,0,0,0,.18-2.52c-.05-.08-.05.08-.13.18a2.17,2.17,0,0,0,.47-1.35,2.06,2.06,0,0,0-.41-1.26,2.31,2.31,0,0,0,.38-1.2,3,3,0,0,0-.38-1.42,2.47,2.47,0,0,0,.41-1.14,2.86,2.86,0,0,0-.52-1.7,3,3,0,0,0,.52-1.53,2.66,2.66,0,0,0-.44-1.39.18.18,0,0,0,0-.08,2.7,2.7,0,0,0,.38-1.2,2.54,2.54,0,0,0-.07-.54,2.29,2.29,0,0,0-1-1.36c-.4-5.61-5.42-10.11-5.58-10.3Z"/><path class="cls-1" d="M38.88,8.3c.34.06,7.19,1.19,8.9,9.72l.07.17.17.1a1.66,1.66,0,0,1,.73,1,1.12,1.12,0,0,1,0,.36,2.37,2.37,0,0,1-.33,1,.37.37,0,0,0-.06.24,1,1,0,0,0,.16.45,1.71,1.71,0,0,1,.32,1,2.64,2.64,0,0,1-.42,1.34l-.19.19.19.23a3.28,3.28,0,0,1,.42,1.4,1.93,1.93,0,0,1-.32,1.05l-.16.2.11.26a1.67,1.67,0,0,1,.36,1.08,1.39,1.39,0,0,1-.36,1l-.24.25.24.29a1.33,1.33,0,0,1,.37,1,1.79,1.79,0,0,1-.28.91.35.35,0,0,0-.1.27,1.29,1.29,0,0,0,.11.39,1.66,1.66,0,0,1,.27.79,1.16,1.16,0,0,1-.28.73l-5.53,1.61-17.87,0s-5.08-1.4-6-1.63a1.24,1.24,0,0,1-.27-.71,3.4,3.4,0,0,1,.2-.85.5.5,0,0,0,.17-.37.63.63,0,0,0-.07-.21,1.6,1.6,0,0,1-.33-.94,1.94,1.94,0,0,1,.33-1l.23-.25L19.3,29A1.53,1.53,0,0,1,19,28a2.37,2.37,0,0,1,.31-1.1l.19-.24-.21-.21a2.07,2.07,0,0,1-.3-1.05A3,3,0,0,1,19.4,24l.18-.21-.18-.25a2.32,2.32,0,0,1-.47-1.27,1.74,1.74,0,0,1,.33-1,1.06,1.06,0,0,0,.21-.44.32.32,0,0,0-.09-.23,2,2,0,0,1-.32-1,1.23,1.23,0,0,1,0-.35,1.48,1.48,0,0,1,.75-1l.16-.12L20,18c1.71-8.51,8.06-9.55,8.3-9.57l-.1-.8c-.07,0-7,1.11-9,10.06a2.39,2.39,0,0,0-1,1.36,1.55,1.55,0,0,0-.08.55,3.06,3.06,0,0,0,.4,1.22l-.06.05a2.67,2.67,0,0,0-.45,1.42,3.18,3.18,0,0,0,.51,1.52,3.09,3.09,0,0,0-.49,1.66,2.51,2.51,0,0,0,.38,1.23,3.43,3.43,0,0,0-.35,1.39,2.19,2.19,0,0,0,.37,1.17,2.23,2.23,0,0,0-.42,1.27,2.35,2.35,0,0,0,.4,1.11,0,0,0,0,0,0,0,2.43,2.43,0,0,0-.35,1.19,2.06,2.06,0,0,0,.53,1.31l.06.1L25.08,36l18.14,0L49,34.34l.11-.05.08-.1a2.09,2.09,0,0,0,.14-2.49c0-.06,0,.07-.07.21a2.24,2.24,0,0,0,.46-1.35,2.66,2.66,0,0,0-.42-1.29,2.31,2.31,0,0,0,.35-1.18,3.78,3.78,0,0,0-.32-1.42,3,3,0,0,0,.36-1.2,3.32,3.32,0,0,0-.47-1.66,2.89,2.89,0,0,0,.5-1.55,2.77,2.77,0,0,0-.45-1.38l-.05,0a2.76,2.76,0,0,0,.39-1.23,2.36,2.36,0,0,0-.07-.55,2.32,2.32,0,0,0-1-1.34C46.64,8.79,39.09,7.51,39,7.51Z"/><path class="cls-1" d="M19.49,18.27,25.31,20l17.15,0,5.85-1.66-.21-.77-5.77,1.63-16.91,0s-5.68-1.68-5.68-1.68Z"/><path class="cls-1" d="M18.93,21.21l5.77,1.67H42.9c.12,0,6-1.63,6-1.63l-.23-.8-5.93,1.61h-18s-5.67-1.69-5.67-1.69Z"/><path class="cls-1" d="M19,24.16l5.75,1.67,18.64,0,5.54-1.65-.27-.78-5.36,1.61H24.87s-5.73-1.68-5.73-1.68Z"/><path class="cls-1" d="M18.85,27.09l5.78,1.68H43.22c.11,0,5.79-1.63,5.79-1.63l-.26-.8L43.08,28,24.71,28,19.09,26.3Z"/><path class="cls-1" d="M18.87,29.61l5.82,1.68H43.2c.08,0,5.79-1.62,5.79-1.62l-.24-.78-5.67,1.63-18.3,0-5.69-1.65Z"/><path class="cls-1" d="M18.77,32l5.6,2.08H43.28c.09,0,5.51-1.78,5.51-1.78l-.27-.79-5.4,1.79H24.52s-5.46-2.07-5.46-2.07Z"/><path class="cls-1" d="M19,111.73a2.41,2.41,0,0,0-.1.59,2.11,2.11,0,0,0,.22.86s-.16.2-.16.2a1.82,1.82,0,0,0-.59,1.23,1.79,1.79,0,0,0,.3.84,1.44,1.44,0,0,0-.15.22A2.4,2.4,0,0,0,18,117a1.72,1.72,0,0,0,.51,1.21l.62-.51c-.57-.67-.24-1.07,0-1.54.19-.26.46-.59.24-.93-.4-.64-.15-.91.2-1.3a1,1,0,0,0,.26-1,.93.93,0,0,1-.1-.88,1.33,1.33,0,0,1,.68-.67l-.29-.76A2,2,0,0,0,19,111.73Z"/><path class="cls-1" d="M4.85,100.39a1.7,1.7,0,0,0-.3,1c0,.1,0,.22,0,.32s-.15.11-.15.11a1.66,1.66,0,0,0-.85,1.38,1.44,1.44,0,0,0,.09.43.5.5,0,0,1-.12.1A1.71,1.71,0,0,0,3,106l.75-.33c-.31-.67,0-.94.37-1.28.2-.17.54-.44.41-.82-.22-.59.09-.82.42-1.07s.59-.37.49-.79a.88.88,0,0,1,.11-.77,1.26,1.26,0,0,1,.7-.44l-.12-.79A2,2,0,0,0,4.85,100.39Zm-.27,1.37h0v0Z"/><path class="cls-1" d="M61.48,100.5a1.17,1.17,0,0,1,.71.42,1,1,0,0,1,.13.81c-.09.42.22.63.48.8s.62.46.46,1c-.17.39.16.66.38.84.38.32.7.59.38,1.29l.75.31a1.84,1.84,0,0,0,.19-.82,2,2,0,0,0-.78-1.39s-.1-.13-.15-.13a1.45,1.45,0,0,0,.08-.47,1.61,1.61,0,0,0-.84-1.33l-.13-.12a3.11,3.11,0,0,0,0-.34,1.67,1.67,0,0,0-.29-1,2.36,2.36,0,0,0-1.28-.76Z"/><path class="cls-1" d="M47.07,111.3a1.35,1.35,0,0,1,.69.65,1.07,1.07,0,0,1-.09.91.83.83,0,0,0,.26,1c.33.39.58.68.17,1.29a1,1,0,0,0,.21,1c.31.45.62.89.07,1.57l.66.51a2,2,0,0,0,.45-1.23,2.64,2.64,0,0,0-.48-1.3,1.77,1.77,0,0,0-.14-.17,2.12,2.12,0,0,0,.25-.89,1.92,1.92,0,0,0-.55-1.25,1.14,1.14,0,0,0-.16-.16,2.66,2.66,0,0,0,.2-.89,1.35,1.35,0,0,0-.1-.59,2.36,2.36,0,0,0-1.15-1.13Z"/><path class="cls-1" d="M3.09,106.14l15.35,12.25H49.08l15.57-12.24-.51-.61L48.79,117.63H18.7c-.21-.18-15.13-12.17-15.13-12.17Z"/><path class="cls-1" d="M47.07,110.46H20.4l-14-10.73-.51.65,14.25,10.9H47.36l14.57-10.9-.5-.69S47.31,110.31,47.07,110.46Z"/><path class="cls-1" d="M4.73,102.08l14.6,11.43H48.16L63,102.1l-.49-.63S48.1,112.53,47.88,112.72H19.61c-.21-.19-14.39-11.31-14.39-11.31Z"/><path class="cls-1" d="M48.31,115H19.14C19,114.84,4.4,103.64,4.4,103.64l-.52.65,15,11.51H48.61L63.85,104l-.46-.64Z"/><path class="cls-1" d="M17.1,120v.08c0,.1.11.21.17.35a.77.77,0,0,1-.06.15,9.86,9.86,0,0,0-.4,2.69,8.71,8.71,0,0,0,.23,1.9,1.4,1.4,0,0,0-.25.76,1.51,1.51,0,0,0,.3,1l.68-.47a.75.75,0,0,1,0-1l.09-.15,0-.19a8.56,8.56,0,0,1,.15-4.28c.09-.29.14-.5-.05-.67h0l0,0a.5.5,0,0,1,.21-.2l-.45-.73A1.4,1.4,0,0,0,17.1,120Z"/><path class="cls-1" d="M.91,106.52a1.37,1.37,0,0,0-.6.87v.1a1,1,0,0,0,.1.22A2,2,0,0,0,0,109.12a9.14,9.14,0,0,0,.18,1.63.92.92,0,0,0-.21.49,1.34,1.34,0,0,0,.31.86l.65-.44a.74.74,0,0,1-.15-.42.3.3,0,0,1,.1-.22l.16-.13,0-.27a7.56,7.56,0,0,1-.2-1.52,1.4,1.4,0,0,1,.27-1l.29-.21-.24-.41h0a1.22,1.22,0,0,1,.2-.28S3.42,106,3.42,106L3,105.3Z"/><path class="cls-1" d="M64.22,105.59l2.11,1.23h0a1.42,1.42,0,0,1,.18.22l-.18.22.15.42a2.18,2.18,0,0,1,.36,1.4,8.44,8.44,0,0,1-.22,1.58l-.13.52h.24s0,.06,0,.06l.66.49a1.65,1.65,0,0,0,.32-.76.63.63,0,0,0-.09-.31c0-.06-.1,0-.14-.06a9.2,9.2,0,0,0,.17-1.52,2.9,2.9,0,0,0-.42-1.75c0-.12.16-.22.16-.29V107a1.1,1.1,0,0,0-.61-.81l-2.11-1.28Z"/><path class="cls-1" d="M49.77,119.91s-.11-.15-.07-.22l-.05.08c-.2.17-.16.36-.06.67a8.38,8.38,0,0,1,.18,4.26l0,.24.14.16c.07.06.51.54.2,1l.64.44a1.49,1.49,0,0,0,.28-.78,1.85,1.85,0,0,0-.4-1.06,9.39,9.39,0,0,0,.17-1.75,10.16,10.16,0,0,0-.38-2.73s0-.09,0-.12.16-.24.16-.34a.65.65,0,0,0,0-.18.77.77,0,0,0-.61-.5Z"/><path class="cls-1" d="M49.66,119.08H18.05c-.2-.17-16.24-12.63-16.24-12.63l-.54.61L17.79,119.9H50l16.56-13.13-.49-.63Z"/><path class="cls-1" d="M50,120.24H17.64c-.2-.18-16.48-13.13-16.48-13.13l-.52.66,16.7,13.29h33l16.91-13.67-.5-.6S50.24,120.06,50,120.24Z"/><path class="cls-1" d="M.31,111.1l16.84,14.6H50.08L67,111.13l-.54-.6S50,124.67,49.8,124.89H17.44c-.23-.22-16.57-14.4-16.57-14.4Z"/><path class="cls-1" d="M49.87,126.18H17.55C17.32,126,.91,111.57.91,111.57l-.55.63L17.27,127h33l17.35-15.11-.55-.65S50.16,126,49.87,126.18Z"/><rect class="cls-1" x="20.02" y="57.51" width="0.79" height="53.3"/><rect class="cls-1" x="46.88" y="57.46" width="0.83" height="53.33"/><rect class="cls-1" x="61.09" y="49.92" width="0.79" height="50.1"/><rect class="cls-1" x="5.62" y="49.44" width="0.81" height="50.66"/><path class="cls-1" d="M31.59.29c-2.47.89-2.83,4.46-2.86,4.59l0,.17.09.13a3.47,3.47,0,0,0,3.72,1.74h0L33,7c.24-.17.24-.35.2-.85l0-.43a2.5,2.5,0,0,1,.55-2.16c.08-.09.33-.27.9,0,.85.35.79.8.69,1.37,0,.33-.1.73.25,1A1.55,1.55,0,0,0,36.72,6c1-.31,1.49-1.67,1.58-1.83L38.37,4l0-.12-1-2A4.94,4.94,0,0,0,31.59.29Zm.27.76a4.1,4.1,0,0,1,4.7,1.33s.76,1.32.92,1.65c-.16.36-.57,1.06-1,1.22a.54.54,0,0,1-.33,0,1.08,1.08,0,0,1,0-.22,3.26,3.26,0,0,0,.06-.5,1.77,1.77,0,0,0-1.25-1.72,1.72,1.72,0,0,0-1.75.12,3.1,3.1,0,0,0-.87,2.45c0,.14,0,.34,0,.42s0,.21,0,.35h0a2.65,2.65,0,0,1-2.75-1.32C29.63,4.31,30.05,1.7,31.86,1.05Z"/><path class="cls-1" d="M27.52,5.48a2.59,2.59,0,0,0-.25,2c.42,1.08,2.86,2.4,4.45,2.4,1.76,0,2.62-.77,3.22-2.9a2,2,0,0,0-.21-1.73,2.71,2.71,0,0,0-1.85-.9l-.06.83a1.83,1.83,0,0,1,1.25.54,1.23,1.23,0,0,1,.06,1C33.59,8.67,32.89,9,31.72,9c-1.39,0-3.44-1.23-3.67-1.87a1.53,1.53,0,0,1,.21-1.26,1.63,1.63,0,0,1,1-.85L29,4.29A2.3,2.3,0,0,0,27.52,5.48Z"/><path class="cls-1" d="M37.84,4.45c.54.1,1.67.54,1.6,1.12,0,.86-.1,1.08-1.18,1.94-1.31,1-3.87,0-3.91,0L34,8.23c.09,0,3.05,1.26,4.72-.06,1.24-1,1.43-1.45,1.5-2.56.13-1.4-2-1.91-2.24-1.95Z"/><path class="cls-1" d="M31.83,9l-.21.81c.21.06,4.93,1.11,7.62-1.63l-.56-.56C36.3,10.05,31.86,9.07,31.83,9Z"/><path class="cls-1" d="M27.35,3.41a3.24,3.24,0,0,0,0,3.05l.77-.26A2.72,2.72,0,0,1,28,3.85,2.3,2.3,0,0,1,29.69,3V2.19A3.13,3.13,0,0,0,27.35,3.41Z"/><path class="cls-1" d="M25.62,3.78l-.41.13c-2.36.76-4.63,1.54-5.3,2.34l-.11.12C18.66,7.65,18,8.49,18.14,9.07A2.41,2.41,0,0,0,20,10.47a.66.66,0,0,0,.65-.07.75.75,0,0,0,.05-.74,1.12,1.12,0,0,1,.44-1.26,7,7,0,0,1,3.55-1.59,8.17,8.17,0,0,0,2.76-1.08L27,5.05A7,7,0,0,1,24.55,6a8.15,8.15,0,0,0-3.89,1.76,1.8,1.8,0,0,0-.8,1.49,2.15,2.15,0,0,0,0,.31c-.57-.21-.93-.46-1-.65a8.52,8.52,0,0,1,1.47-2l.13-.12c.65-.73,3.74-1.75,4.93-2.1l.41-.15,1.94-.43-.08-.84Z"/><path class="cls-1" d="M26.13,6.67a1.73,1.73,0,0,1-1.52.46l-2.45-.37,0,.83,2.24.33a2.45,2.45,0,0,0,2.33-.7,3,3,0,0,1,1-.42L27.42,6A4.69,4.69,0,0,0,26.13,6.67Z"/><path class="cls-1" d="M26.39,8.14l-.79.46-.29.11c-.35.16-.53.25-1.54.08a5.41,5.41,0,0,0-3.31,1l-.24.15.06.27c.18.87.49,3.3-.06,4.2-.09.15-.75.15-3.18-1l-.85-.4a3,3,0,0,1-1.42-1,8.39,8.39,0,0,1,2.07-2.16,2.45,2.45,0,0,1,1.62-.36l.12-.86a3.53,3.53,0,0,0-2.22.55A9.37,9.37,0,0,0,14,11.54a.58.58,0,0,0-.08.55,3.52,3.52,0,0,0,2,1.61l.81.37c1.61.79,3.58,1.73,4.19.69a4,4,0,0,0,.45-2.11,17.87,17.87,0,0,0-.2-2.34,4.15,4.15,0,0,1,2.52-.71,2.85,2.85,0,0,0,2-.14l.22-.11.95-.52a7.06,7.06,0,0,1,1.08-.6V7.46A3.43,3.43,0,0,0,26.39,8.14Z"/><path class="cls-1" d="M13.63,12.79c-.08.5.31,1.06,1.29,1.67,1.92,1.28,3.68,2,4.48,1.85a2.19,2.19,0,0,0,1.41-.87.76.76,0,0,0,0-.69l-.75.35v0a1.33,1.33,0,0,1-.8.44c-.33.08-1.71-.29-3.9-1.72-.89-.57-.93-.87-.93-.87l.13-.1-.19-.77A1,1,0,0,0,13.63,12.79Z"/><path class="cls-1" d="M12.7,13c-.24.74,1.46,2.47,3.73,3.43,2.44,1,3.38.64,3.57.53l.36-.16-.55-1-.7.37a.68.68,0,0,1,0,.12,7,7,0,0,1-2.39-.62,7,7,0,0,1-3.17-2.37,3,3,0,0,0,.44-.1v-.81C13.76,12.37,12.91,12.42,12.7,13Z"/><path class="cls-1" d="M12.05,13.64a1.22,1.22,0,0,0,.58,1.12,32.56,32.56,0,0,0,4.46,3c.91.47,1.35.55,2,.25a1.27,1.27,0,0,0,.66-1.18.61.61,0,0,0-.63-.51v.83L19,17l0-.11a.41.41,0,0,1-.25.31c-.29.15-.4.2-1.21-.23a29,29,0,0,1-4.35-2.87c-.24-.19-.3-.31-.27-.34s.21-.2.4-.31L13,12.75C12.91,12.79,12.14,13,12.05,13.64Z"/><path class="cls-1" d="M11.87,14c-.28.38,0,.88.34,1.35a3.16,3.16,0,0,0,1.34,1.26l.53.32c.84.6,1.28.48,1.66.28l.15-.06.3-.74-.83.09c-.19.08-.31.13-.81-.24l-.61-.36a2.52,2.52,0,0,1-1.06-1l-.32-.52-.06.15a.24.24,0,0,1-.18.1l.24-.78A.64.64,0,0,0,11.87,14Z"/><path class="cls-1" d="M8.79,17.84A31.55,31.55,0,0,0,7.1,23L7,23.61a18.57,18.57,0,0,0-.3,3.21,31.13,31.13,0,0,1-1.28,3.63C5,31.56,4,34.29,5.13,35.13a2.23,2.23,0,0,0,3.08-.22,8,8,0,0,0,1.34-4.52,49.31,49.31,0,0,1-.15-5.81A21.53,21.53,0,0,1,10.6,19a10.88,10.88,0,0,1,1.45-2.56,2.35,2.35,0,0,1,.74-.65L12.52,15s-.13.06-.35.17a.92.92,0,0,0,.2-.11l-.47-.64A8.73,8.73,0,0,0,8.79,17.84ZM5.65,34.51a1,1,0,0,1-.23-.74,10.49,10.49,0,0,1,.78-3.05,20.38,20.38,0,0,0,1.35-4s0-.06,0-.08,0,0,0-.07c0-.42.23-2.18.35-2.84l0-.57a34.6,34.6,0,0,1,1.64-5,8,8,0,0,1,2.6-3,3.17,3.17,0,0,0-.73.69,12.2,12.2,0,0,0-1.57,2.76,23.69,23.69,0,0,0-1.28,5.91c0,.34,0,.7,0,1.09,0,1.65.13,3.78.2,4.83a.61.61,0,0,1,0,.24,7.79,7.79,0,0,1-1.16,3.64A1.38,1.38,0,0,1,5.65,34.51Z"/><path class="cls-1" d="M9.22,23.57a16.83,16.83,0,0,0,.58,4.11,22.48,22.48,0,0,1,.43,4.44,8,8,0,0,1-.69,2.73.88.88,0,0,1-1,.32c-.33-.08-.42-.24-.42-.26l-.83-.09s-.12.81,1,1.11a1.71,1.71,0,0,0,2-.65A8.92,8.92,0,0,0,11,32.12a22.53,22.53,0,0,0-.45-4.67A17.7,17.7,0,0,1,10,23.57a27.08,27.08,0,0,1,.37-4.19l-.75-.28A24,24,0,0,0,9.22,23.57Z"/><path class="cls-1" d="M11.87,17.59a9.77,9.77,0,0,0-.93,3.68l.32,2.38.05.44a13.48,13.48,0,0,1,0,3.49l-.2.78a4.36,4.36,0,0,1-.47,1.55s.11-.07.14,0l-.24.78.54-.07c.42-.26.61-1,.85-2.06l.15-.65a14.63,14.63,0,0,0,0-3.93l-.09-.46-.31-2.23A9.16,9.16,0,0,1,12.56,18a6.05,6.05,0,0,1,1.57-1.24l-.37-.69A6.13,6.13,0,0,0,11.87,17.59Z"/><path class="cls-1" d="M16.42,17.29l.47,1.25a12.12,12.12,0,0,1-.56,2.4,15.71,15.71,0,0,1-1.39,2.12,20.7,20.7,0,0,0-1.82,3.23,4.72,4.72,0,0,0-.46,2.52v3.63a8.64,8.64,0,0,1-.84,2.84.46.46,0,0,1-.29.24,1.12,1.12,0,0,1-.76-.23c-.29-.2-.31-.33-.31-.33l0,.09-.65-.48s-.44.67.54,1.36a1.66,1.66,0,0,0,1.43.36,1.12,1.12,0,0,0,.82-.66,8.72,8.72,0,0,0,.9-3.15V28.74a4.34,4.34,0,0,1,.41-2.11,23.33,23.33,0,0,1,1.69-3.06,12.3,12.3,0,0,0,1.53-2.36,9.71,9.71,0,0,0,.6-2.9S17.17,17,17.17,17Z"/><path class="cls-1" d="M15.52,16.79a4.71,4.71,0,0,1-.13,1.87L13.9,21.45l-1.2,2.06-1.15,2.36.71.45,1.2-2.48s1.12-2,1.12-2L16.14,19a5.2,5.2,0,0,0,.19-2.25Z"/><path class="cls-1" d="M14.84,17.35a.08.08,0,0,1-.07-.08l-.3.45-1.19,1.13-.58.61a6.78,6.78,0,0,0-1.15,3l-.11,2,.78.07.17-2A7.46,7.46,0,0,1,13.28,20l.59-.54,1.18-1.19c.47-.45.63-.84.51-1.17a.76.76,0,0,0-.51-.52Z"/><path class="cls-1" d="M13.76,27.32l0,.77.16,3.27,0,.4a10.8,10.8,0,0,1-.4,2.77,1.2,1.2,0,0,1-.47.64c-.11,0-.11-.17-.11-.17H12.1a1,1,0,0,0,.75,1c.7.1,1.34-.73,1.45-1.21a14.94,14.94,0,0,0,.42-2.85v-.22l0-.4-.17-3.11,0-.82A7.55,7.55,0,0,1,15,24.54l-.7-.42A6.88,6.88,0,0,0,13.76,27.32Z"/><path class="cls-1" d="M17.2,17.89l-.16.28a1.62,1.62,0,0,0-.05.57,6,6,0,0,0,.21,1.78L18,22.6a10.51,10.51,0,0,1,.36,3.23V26A22.13,22.13,0,0,1,17,30.21,7.87,7.87,0,0,0,16.45,33c0,.2,0,.37.07.44s.47.74.47.74l.05,0v.07c-.05.41-.25.41-.34.41s-.25,0-.37-.23l-.21-.29a14.58,14.58,0,0,1-.44-2.78,13.39,13.39,0,0,1,.88-3.68,21.45,21.45,0,0,0,1-4.64,8.12,8.12,0,0,0-.38-2.2l-.78.27A6.06,6.06,0,0,1,16.75,23a18.06,18.06,0,0,1-.94,4.38,12.39,12.39,0,0,0-.93,4.06s.17,2.77.64,3.25c0,0,.09.22.09.22a1.14,1.14,0,0,0,1.13.62,1.16,1.16,0,0,0,1.11-1.13v-.19a.78.78,0,0,0-.3-.63l-.25-.4V33a7.74,7.74,0,0,1,.41-2.38,20.52,20.52,0,0,0,1.4-4.46V26a10.43,10.43,0,0,0-.41-3.73L18,20.32a9.18,9.18,0,0,1-.19-1.66c0-.1,0-.22.05-.24l.09-.18.15-.49-.81,0Z"/><path class="cls-1" d="M17.91,18a2.91,2.91,0,0,1,.5,1.12l.12,1.39c0,.08-.08,1.38-.08,1.38v1.47l-.11,1.27.8.12.12-1.39V21.79l.07-1.11s-.1-1.69-.1-1.69a3.93,3.93,0,0,0-.72-1.52Z"/><path class="cls-1" d="M15.89,24.76l-.55.71-.72,1-.28.52a4.85,4.85,0,0,0-.58,1.56h.8a4.51,4.51,0,0,1,.51-1.18l.29-.61.57-.73.63-.78a7.48,7.48,0,0,0,.88-2.11l-.77-.23A6.81,6.81,0,0,1,15.89,24.76Z"/><path class="cls-1" d="M14.86,34.91s-.24.18-.41.17a.41.41,0,0,1-.26-.23l-.82.23a1.33,1.33,0,0,0,.89.77,1.41,1.41,0,0,0,1.26-.46c.05-.11.51-1,.51-1L15.34,34Z"/><path class="cls-1" d="M6.73,27.32s0,.13,0,.26H6.66v.73L6.54,30.6s-.28,1.75-.28,1.75a2.15,2.15,0,0,0-.18.72.46.46,0,0,0,.21.4l.22.18.29-.18a3.47,3.47,0,0,0,.69-1.15,4.77,4.77,0,0,0,0-1.8v-.06c0-.26,0-1.49,0-2.23,0-.25.06-.86.06-.86s.06-1.25.06-1.25L6.8,26Z"/><path class="cls-1" d="M12.14,17.64a4.08,4.08,0,0,0-.83,1.74l.77.27a5.36,5.36,0,0,1,.64-1.48,3.77,3.77,0,0,1,1.15-.74s.11,0,.15,0v0a2,2,0,0,1-.19.73s-1,1.08-1,1.08l.61.53,1-1a2.24,2.24,0,0,0,.41-1.47c-.09-.54-.65-.65-.86-.7A2.93,2.93,0,0,0,12.14,17.64Z"/><path class="cls-1" d="M10.77,16.9l.7.44a2.37,2.37,0,0,1,1.78-1l0-.8A3.12,3.12,0,0,0,10.77,16.9Z"/><path class="cls-1" d="M10.54,15.59l.56.58a3.1,3.1,0,0,1,1.4-.64l-.18-.78A4.36,4.36,0,0,0,10.54,15.59Z"/><path class="cls-1" d="M15.86,17.34A2.71,2.71,0,0,1,16.79,19l.82.05a3.85,3.85,0,0,0-1.18-2.27Z"/><path class="cls-1" d="M13.71,17.15a.88.88,0,0,1,.66.23.46.46,0,0,1,0,.34l.77.3A1.21,1.21,0,0,0,15.05,17a1.57,1.57,0,0,0-1.27-.63Z"/><path class="cls-1" d="M11.59,15.73l.49.66.83-.47.34-.61C13,15,12.56,15.07,11.59,15.73Z"/><polygon class="cls-1" points="16.89 18.38 17.69 18.44 17.79 17.72 17.17 17.24 16.89 18.38"/><path class="cls-1" d="M14.08,16.92a5,5,0,0,0,1.68.08l-.24-.76a4.38,4.38,0,0,1-1.26-.13Z"/><rect class="cls-1" x="45.42" y="59.25" width="0.83" height="50.02"/><rect class="cls-1" x="59.67" y="52.3" width="0.79" height="47.07"/><rect class="cls-1" x="7.01" y="51.68" width="0.82" height="47.09"/><rect class="cls-1" x="21.55" y="59.22" width="0.83" height="50.01"/><line class="cls-1" x1="21.85" y1="108.86" x2="45.7" y2="108.86"/><rect class="cls-1" x="21.85" y="108.43" width="23.84" height="0.84"/><text class="cls-2" transform="translate(68.29 66.18)">R</text><path class="cls-1" d="M70.55,57.67a5.83,5.83,0,1,0,5.82,5.83A5.83,5.83,0,0,0,70.55,57.67Zm0,11.12a5.29,5.29,0,1,1,5.29-5.29A5.29,5.29,0,0,1,70.55,68.79Z"/></g></g></svg>